<?xml version="1.0" standalone="no"?>
<!DOCTYPE svg PUBLIC "-//W3C//DTD SVG 1.1//EN" "http://www.w3.org/Graphics/SVG/1.1/DTD/svg11.dtd" >
<svg xmlns="http://www.w3.org/2000/svg" xmlns:xlink="http://www.w3.org/1999/xlink" version="1.1">
<metadata>
Created by FontForge 20170731 at Sat Oct 29 02:10:27 2016
 By Aleksey,,,
Copyright (C) 2001, 2010 Hoefler &#38; Co. http://www.typography.com
</metadata>
<defs>
<font id="GothamSSm-BoldItalic" horiz-adv-x="530" >
  <font-face 
    font-family="Gotham SSm Bold"
    font-weight="400"
    font-style="italic"
    font-stretch="normal"
    units-per-em="1000"
    panose-1="0 0 0 0 0 0 0 0 0 0"
    ascent="800"
    descent="-200"
    x-height="556"
    cap-height="728"
    bbox="-135 -299 1250 1011"
    underline-thickness="50"
    underline-position="-200"
    slope="-15"
    unicode-range="U+0020-2122"
  />
<missing-glyph horiz-adv-x="500" 
d="M0 800h500v-1000h-500v1000zM222 300l-172 376v-752zM429 -150l-179 390l-179 -390h358zM429 750h-358l179 -390zM450 676l-172 -376l172 -376v752z" />
    <glyph glyph-name=".notdef" horiz-adv-x="500" 
d="M0 800h500v-1000h-500v1000zM222 300l-172 376v-752zM429 -150l-179 390l-179 -390h358zM429 750h-358l179 -390zM450 676l-172 -376l172 -376v752z" />
    <glyph glyph-name=".null" horiz-adv-x="0" 
 />
    <glyph glyph-name="nonmarkingreturn" horiz-adv-x="322" 
 />
    <glyph glyph-name="space" unicode=" " horiz-adv-x="322" 
 />
    <glyph glyph-name="exclam" unicode="!" horiz-adv-x="343" 
d="M196 704l7 24h178l-7 -24l-170 -460h-84zM59 162h162l-43 -162h-163z" />
    <glyph glyph-name="quotedbl" unicode="&#x22;" horiz-adv-x="552" 
d="M196 728h170l-2 -5l-177 -323h-79zM444 728h170l-2 -5l-177 -323h-79z" />
    <glyph glyph-name="numbersign" unicode="#" horiz-adv-x="728" 
d="M105 158h-87l34 128h98l55 160h-100l34 128h111l54 154h132l-54 -154h154l54 154h132l-54 -154h88l-34 -128h-99l-55 -160h101l-34 -128h-112l-54 -158h-133l55 158h-154l-55 -158h-132zM436 286l55 160h-154l-55 -160h154z" />
    <glyph glyph-name="dollar" unicode="$" horiz-adv-x="670" 
d="M547 788l-22 -74q50 -13 89.5 -37t71.5 -57l-103 -102q-49 46 -100 65l-49 -163q38 -14 69 -31t53.5 -40t34.5 -52.5t12 -69.5q0 -51 -22.5 -93t-62 -71.5t-92.5 -46t-114 -16.5h-2l-31 -102h-105l34 112q-66 13 -118 43.5t-90 80.5l112 94q59 -68 138 -89l52 170
q-37 14 -69 30t-55 38t-36 52t-13 72q0 49 22 90.5t60 72t90 47.5t112 17h10l19 60h105zM286 517q0 -20 13 -34.5t48 -29.5l42 143h-1q-52 -2 -78 -25.5t-24 -53.5zM445 211q0 21 -13 36t-43 29l-44 -144h1q45 4 73 24t26 55z" />
    <glyph glyph-name="percent" unicode="%" horiz-adv-x="922" 
d="M252 360q-36 0 -65.5 11.5t-50 32.5t-32 50.5t-11.5 64.5q0 45 17 86.5t49 73.5q26 26 60 41.5t75 15.5q36 0 65.5 -11.5t50.5 -32.5t32.5 -50.5t11.5 -64.5q0 -45 -17.5 -86.5t-48.5 -73.5q-26 -26 -60 -41.5t-76 -15.5zM258 448q33 0 57 24q19 19 29.5 46.5t10.5 54.5
q0 35 -18 55.5t-49 20.5q-17 0 -31 -7t-26 -18q-18 -19 -28.5 -46.5t-10.5 -53.5q0 -35 17.5 -55.5t48.5 -20.5zM417 363l351 365h131l-350 -363l-350 -365h-131zM672 -8q-36 0 -65.5 11.5t-50 32.5t-32 50.5t-11.5 64.5q0 45 17 86.5t49 73.5q26 26 60 41.5t76 15.5
q36 0 65.5 -11.5t50 -32.5t32 -50.5t11.5 -64.5q0 -45 -17 -86.5t-49 -73.5q-26 -26 -60 -41.5t-76 -15.5zM678 79q17 0 31.5 7t25.5 18q19 19 29.5 46.5t10.5 53.5q0 35 -18 55.5t-48 20.5q-33 0 -57 -24q-19 -19 -29.5 -46.5t-10.5 -54.5q0 -35 18 -55.5t48 -20.5z" />
    <glyph glyph-name="ampersand" unicode="&#x26;" horiz-adv-x="733" 
d="M698 305q-28 -42 -56 -79.5t-58 -69.5l73 -99l-113 -72l-60 82q-52 -37 -108 -57t-117 -20q-50 0 -92.5 13t-73 38t-47.5 61t-17 82q0 34 11.5 67t37 63t65 55t95.5 43q-19 31 -29 64.5t-10 62.5q0 40 16 76.5t46 64t72.5 44t95.5 16.5q44 0 80.5 -13t63 -36t41 -55
t14.5 -69q0 -27 -9.5 -54.5t-32.5 -54t-61.5 -50.5t-96.5 -43l86 -116q47 52 91 121zM276 116q67 0 139 48l-116 160q-66 -25 -95.5 -59.5t-29.5 -71.5q0 -33 26 -55t76 -22zM334 537q0 -17 6.5 -37.5t24.5 -47.5q37 13 61 25.5t38.5 25t20 26t5.5 29.5q0 23 -17 42.5
t-51 19.5q-41 0 -64.5 -25t-23.5 -58z" />
    <glyph glyph-name="quotesingle" unicode="'" horiz-adv-x="304" 
d="M196 728h170l-2 -5l-177 -323h-79z" />
    <glyph glyph-name="parenleft" unicode="(" horiz-adv-x="472" 
d="M258 -149q-91 73 -140.5 165t-49.5 202q0 103 39.5 194t114.5 167q100 100 257 163l56 -113q-59 -26 -105.5 -58.5t-83.5 -68.5q-63 -63 -93.5 -134t-30.5 -145q0 -80 37.5 -148.5t92.5 -126.5z" />
    <glyph glyph-name="parenright" unicode=")" horiz-adv-x="472" 
d="M225 746q90 -72 140 -164.5t50 -202.5q0 -102 -39.5 -193.5t-114.5 -166.5q-50 -51 -114.5 -91.5t-142.5 -72.5l-56 113q59 26 105.5 58.5t82.5 69.5q63 63 94 134t31 144q0 80 -37.5 149t-92.5 126z" />
    <glyph glyph-name="asterisk" unicode="*" horiz-adv-x="457" 
d="M214 405l47 117l-118 -47l-22 80l126 18l-100 78l60 60l78 -101l17 125l80 -21l-48 -117l118 47l22 -80l-126 -18l100 -78l-60 -60l-77 101l-17 -125z" />
    <glyph glyph-name="plus" unicode="+" horiz-adv-x="674" 
d="M271 297h-190l37 138h190l51 189h142l-51 -189h191l-37 -138h-191l-50 -189h-142z" />
    <glyph glyph-name="comma" unicode="," horiz-adv-x="336" 
d="M-57 -102q63 6 93.5 32t38.5 70h-62l43 162h163l-37 -137q-26 -100 -82 -143.5t-147 -46.5z" />
    <glyph glyph-name="hyphen" unicode="-" horiz-adv-x="438" 
d="M92 395h318l-40 -147h-317z" />
    <glyph glyph-name="period" unicode="." horiz-adv-x="336" 
d="M56 162h163l-44 -162h-162z" />
    <glyph glyph-name="slash" unicode="/" horiz-adv-x="559" 
d="M576 830h143l-710 -963h-144z" />
    <glyph glyph-name="zero" unicode="0" horiz-adv-x="768" 
d="M460 740q64 0 115.5 -21.5t88.5 -60.5t57 -94.5t20 -123.5q0 -47 -9 -94.5t-26.5 -92.5t-43 -85.5t-59.5 -74.5q-48 -48 -111 -76.5t-140 -28.5q-64 0 -116 21.5t-88.5 60.5t-56.5 94.5t-20 123.5q0 47 9 94.5t26.5 92.5t43 85.5t59.5 74.5q48 48 111 76.5t140 28.5z
M364 126q35 0 65 15t55 40q24 24 42.5 54.5t31 65t19.5 70.5t7 70q0 78 -36.5 119.5t-99.5 41.5q-35 0 -65 -15t-55 -40q-24 -24 -42 -54.5t-31 -65t-19.5 -70.5t-6.5 -70q0 -78 36 -119.5t99 -41.5z" />
    <glyph glyph-name="one" unicode="1" horiz-adv-x="455" 
d="M256 570l-133 -31l-2 131l226 63h105l-196 -733h-152z" />
    <glyph glyph-name="two" unicode="2" horiz-adv-x="647" 
d="M8 126l372 258q54 38 80.5 70.5t26.5 68.5q0 37 -25 57.5t-70 20.5q-49 0 -91 -25t-85 -67l-94 98q53 60 121.5 95.5t155.5 35.5q56 0 101.5 -14.5t77.5 -41t49.5 -63t17.5 -80.5q0 -33 -8.5 -63t-28.5 -59t-52.5 -58.5t-80.5 -63.5l-233 -162h312l-36 -133h-544z" />
    <glyph glyph-name="three" unicode="3" horiz-adv-x="638" 
d="M257 -12q-101 0 -167 38t-101 100l114 84q29 -41 66 -63t95 -22q30 0 56.5 9t45.5 23.5t30 34t11 40.5q0 45 -39 67.5t-107 22.5h-44l-7 95l221 179h-283l37 132h490l-32 -116l-240 -185q70 -16 114.5 -58.5t44.5 -122.5q0 -50 -18.5 -92.5t-53.5 -76.5
q-42 -42 -101.5 -65.5t-131.5 -23.5z" />
    <glyph glyph-name="four" unicode="4" horiz-adv-x="694" 
d="M378 158h-340l-16 114l506 461h149l-120 -450h99l-34 -125h-99l-42 -158h-145zM412 283l65 245l-260 -245h195z" />
    <glyph glyph-name="five" unicode="5" horiz-adv-x="644" 
d="M265 -12q-40 0 -79.5 10t-75.5 27.5t-65 41.5t-48 51l108 91q37 -41 79 -61.5t94 -20.5q34 0 62 9.5t48 26t31.5 38t11.5 45.5q0 42 -34 69.5t-104 27.5q-24 0 -52 -7t-50 -17l-78 63l114 346h438l-37 -135h-300l-44 -132q18 4 38 6.5t40 2.5q50 0 91.5 -14.5t71.5 -41.5
t47 -65.5t17 -85.5q0 -51 -19.5 -96.5t-57.5 -83.5q-43 -43 -105 -69t-142 -26z" />
    <glyph glyph-name="six" unicode="6" horiz-adv-x="679" 
d="M331 -12q-58 0 -107 17t-82 49q-36 37 -55 86.5t-19 118.5q0 52 9.5 104t27.5 100t44.5 91t61.5 78q49 49 115 78.5t147 29.5q70 0 126 -23t98 -62l-90 -110q-28 26 -65 42t-82 16t-80 -15t-64 -44q-26 -26 -46.5 -61.5t-31.5 -75.5q12 12 30 24t40.5 21t48 14.5
t52.5 5.5q46 0 86.5 -13.5t70.5 -40t47.5 -64t17.5 -85.5q0 -54 -22.5 -103.5t-60.5 -87.5q-42 -42 -97 -66t-120 -24zM331 117q34 0 61 12.5t46 30.5q38 38 38 88q0 45 -31 72.5t-82 27.5q-36 0 -65 -12t-47 -30q-37 -37 -37 -87q0 -42 29 -69q31 -33 88 -33z" />
    <glyph glyph-name="seven" unicode="7" horiz-adv-x="641" 
d="M473 595h-339l36 133h521l-32 -116l-460 -612h-180z" />
    <glyph glyph-name="eight" unicode="8" horiz-adv-x="697" 
d="M317 -10q-57 0 -107.5 14.5t-88.5 41.5t-60 64.5t-22 84.5q0 42 14.5 74.5t39.5 57t59.5 41t74.5 26.5q-43 21 -66.5 58.5t-23.5 82.5q0 36 17.5 72t51.5 65.5t85 47.5t119 18q57 0 104 -14.5t81 -40.5t53 -61.5t19 -78.5q0 -69 -43 -116.5t-118 -65.5q49 -19 80.5 -58
t31.5 -98q0 -41 -20.5 -80t-59.5 -69t-95 -48t-126 -18zM325 114q61 0 101.5 27t41.5 72q1 41 -36 67t-100 26t-102.5 -28t-40.5 -70q-1 -41 36.5 -67.5t99.5 -26.5zM398 430q27 0 50 7.5t39.5 20t26 30t9.5 37.5q1 36 -30 61.5t-90 25.5q-52 0 -87 -26.5t-36 -66.5
q-1 -38 31 -63.5t87 -25.5z" />
    <glyph glyph-name="nine" unicode="9" horiz-adv-x="679" 
d="M258 -12q-69 0 -129 24t-109 69l90 110q35 -30 71.5 -48t84.5 -18q83 0 145 61q25 25 44 58t30 69q-24 -25 -69.5 -44.5t-99.5 -19.5q-46 0 -86.5 13t-70.5 39t-47.5 64.5t-17.5 89.5q0 58 21.5 108t59.5 88q42 42 97.5 65.5t121.5 23.5q26 0 53 -4t51.5 -12.5
t46.5 -20.5t38 -28q37 -37 56 -88t19 -131q0 -100 -38 -195.5t-108 -165.5q-51 -51 -115 -79t-139 -28zM364 373q34 0 61.5 11t47.5 31q17 18 27 41.5t10 49.5q0 21 -6.5 40t-20.5 32q-33 33 -88 33q-34 0 -61 -11.5t-46 -30.5q-39 -39 -39 -94q0 -49 32 -75.5t83 -26.5z
" />
    <glyph glyph-name="colon" unicode=":" horiz-adv-x="337" 
d="M57 162h162l-43 -162h-163zM162 556h163l-44 -162h-162z" />
    <glyph glyph-name="semicolon" unicode=";" horiz-adv-x="337" 
d="M-57 -102q63 6 93.5 32t38.5 70h-62l44 162h162l-36 -137q-27 -100 -83 -143.5t-147 -46.5zM162 556h163l-44 -162h-162z" />
    <glyph glyph-name="less" unicode="&#x3c;" horiz-adv-x="674" 
d="M81 297l36 138l562 222l-41 -148l-395 -149l316 -149l-36 -136z" />
    <glyph glyph-name="equal" unicode="=" horiz-adv-x="674" 
d="M99 301h492l-37 -138h-492zM171 569h492l-37 -138h-492z" />
    <glyph glyph-name="greater" unicode="&#x3e;" horiz-adv-x="674" 
d="M80 223l396 149l-316 149l36 136l442 -222l-37 -138l-562 -222z" />
    <glyph glyph-name="question" unicode="?" horiz-adv-x="575" 
d="M212 413l6 5q101 7 156 35t55 76q0 32 -22.5 50.5t-68.5 18.5q-39 0 -78.5 -17.5t-73.5 -46.5l-80 101q50 51 116.5 76.5t136.5 25.5q55 0 98 -15.5t72.5 -41.5t45 -60t15.5 -71q0 -93 -68 -151t-199 -78l-31 -76h-102zM141 162h162l-43 -162h-163z" />
    <glyph glyph-name="at" unicode="@" horiz-adv-x="1029" 
d="M496 -162q-96 0 -175.5 30t-137 83.5t-89 127.5t-31.5 163q0 100 39.5 191t107.5 160t160.5 109.5t199.5 40.5q97 0 175 -29t132.5 -78.5t83.5 -114.5t29 -136q0 -82 -21 -141.5t-55.5 -98.5t-78.5 -58t-90 -19q-53 0 -90 22t-53 60q-32 -34 -72.5 -58.5t-95.5 -24.5
q-35 0 -65 11.5t-53 34t-36 55.5t-13 75q0 62 22.5 114.5t59.5 90.5t83.5 59.5t94.5 21.5q54 0 86 -21t52 -54l20 66l112 -31l-78 -245q-8 -25 -10 -38t-2 -24q0 -32 19 -49t50 -17q28 0 58 17.5t55 51t41.5 84t16.5 116.5q0 64 -26 121.5t-75 101t-118.5 69t-157.5 25.5
q-98 0 -183 -37.5t-147.5 -100.5t-98.5 -146.5t-36 -175.5q0 -80 28.5 -147t80.5 -115t123.5 -74.5t158.5 -26.5q58 0 109 11.5t104 34.5l17 -36q-57 -26 -112 -38.5t-118 -12.5zM483 169q27 0 53.5 13t47.5 36t34 53.5t13 65.5q0 41 -25.5 65t-67.5 24q-27 0 -53 -13
t-46 -35.5t-32.5 -52.5t-12.5 -65q0 -42 24 -66.5t65 -24.5z" />
    <glyph glyph-name="A" unicode="A" horiz-adv-x="805" 
d="M457 733h148l117 -733h-158l-23 166h-315l-113 -166h-166zM522 302l-36 251l-168 -251h204z" />
    <glyph glyph-name="A" unicode="&#x1fa;" horiz-adv-x="805" 
d="M457 733h148l117 -733h-158l-23 166h-315l-113 -166h-166zM522 302l-36 251l-168 -251h204z" />
    <glyph glyph-name="A" unicode="&#x104;" horiz-adv-x="805" 
d="M457 733h148l117 -733h-158l-23 166h-315l-113 -166h-166zM522 302l-36 251l-168 -251h204z" />
    <glyph glyph-name="A" unicode="&#x102;" horiz-adv-x="805" 
d="M457 733h148l117 -733h-158l-23 166h-315l-113 -166h-166zM522 302l-36 251l-168 -251h204z" />
    <glyph glyph-name="A" unicode="&#x100;" horiz-adv-x="805" 
d="M457 733h148l117 -733h-158l-23 166h-315l-113 -166h-166zM522 302l-36 251l-168 -251h204z" />
    <glyph glyph-name="B" unicode="B" horiz-adv-x="756" 
d="M214 728h283q63 0 109 -14t76 -38t44.5 -56.5t14.5 -69.5q0 -73 -43 -119t-115 -62q46 -21 75 -56t29 -92q0 -49 -20.5 -89.5t-60 -70t-98 -45.5t-133.5 -16h-356zM398 135q63 0 99.5 25.5t36.5 70.5q0 34 -27 53t-78 19h-179l-45 -168h193zM450 431q65 0 101 23t36 70
q0 30 -25 49.5t-79 19.5h-156l-42 -162h165z" />
    <glyph glyph-name="C" unicode="C" horiz-adv-x="766" 
d="M417 -13q-74 0 -136.5 22t-108 63t-71 99.5t-25.5 131.5q0 88 34.5 167t95.5 140q60 60 140.5 95t172.5 35q105 0 175.5 -41.5t114.5 -113.5l-127 -88q-16 23 -34 41.5t-40 32t-48.5 21t-59.5 7.5q-49 0 -94 -20.5t-81 -56.5q-41 -41 -65 -95.5t-24 -117.5
q0 -41 13.5 -74t37.5 -56.5t57.5 -36.5t73.5 -13q55 0 94.5 20t80.5 54l100 -103q-52 -49 -118.5 -81t-157.5 -32z" />
    <glyph glyph-name="C" unicode="&#x10c;" horiz-adv-x="766" 
d="M417 -13q-74 0 -136.5 22t-108 63t-71 99.5t-25.5 131.5q0 88 34.5 167t95.5 140q60 60 140.5 95t172.5 35q105 0 175.5 -41.5t114.5 -113.5l-127 -88q-16 23 -34 41.5t-40 32t-48.5 21t-59.5 7.5q-49 0 -94 -20.5t-81 -56.5q-41 -41 -65 -95.5t-24 -117.5
q0 -41 13.5 -74t37.5 -56.5t57.5 -36.5t73.5 -13q55 0 94.5 20t80.5 54l100 -103q-52 -49 -118.5 -81t-157.5 -32z" />
    <glyph glyph-name="C" unicode="&#x10a;" horiz-adv-x="766" 
d="M417 -13q-74 0 -136.5 22t-108 63t-71 99.5t-25.5 131.5q0 88 34.5 167t95.5 140q60 60 140.5 95t172.5 35q105 0 175.5 -41.5t114.5 -113.5l-127 -88q-16 23 -34 41.5t-40 32t-48.5 21t-59.5 7.5q-49 0 -94 -20.5t-81 -56.5q-41 -41 -65 -95.5t-24 -117.5
q0 -41 13.5 -74t37.5 -56.5t57.5 -36.5t73.5 -13q55 0 94.5 20t80.5 54l100 -103q-52 -49 -118.5 -81t-157.5 -32z" />
    <glyph glyph-name="C" unicode="&#x106;" horiz-adv-x="766" 
d="M417 -13q-74 0 -136.5 22t-108 63t-71 99.5t-25.5 131.5q0 88 34.5 167t95.5 140q60 60 140.5 95t172.5 35q105 0 175.5 -41.5t114.5 -113.5l-127 -88q-16 23 -34 41.5t-40 32t-48.5 21t-59.5 7.5q-49 0 -94 -20.5t-81 -56.5q-41 -41 -65 -95.5t-24 -117.5
q0 -41 13.5 -74t37.5 -56.5t57.5 -36.5t73.5 -13q55 0 94.5 20t80.5 54l100 -103q-52 -49 -118.5 -81t-157.5 -32z" />
    <glyph glyph-name="D" unicode="D" horiz-adv-x="818" 
d="M214 728h210q105 0 174 -26t111 -68q79 -80 79 -213q0 -82 -30.5 -155t-89.5 -131q-66 -66 -160 -100.5t-221 -34.5h-268zM584 534q-26 26 -67.5 40.5t-104.5 14.5h-81l-121 -450h95q75 0 139.5 22.5t109.5 67.5q35 36 54.5 84t19.5 102q0 39 -11.5 68.5t-32.5 50.5z" />
    <glyph glyph-name="D" unicode="&#x110;" horiz-adv-x="818" 
d="M214 728h210q105 0 174 -26t111 -68q79 -80 79 -213q0 -82 -30.5 -155t-89.5 -131q-66 -66 -160 -100.5t-221 -34.5h-268zM584 534q-26 26 -67.5 40.5t-104.5 14.5h-81l-121 -450h95q75 0 139.5 22.5t109.5 67.5q35 36 54.5 84t19.5 102q0 39 -11.5 68.5t-32.5 50.5z" />
    <glyph glyph-name="D" unicode="&#x10e;" horiz-adv-x="818" 
d="M214 728h210q105 0 174 -26t111 -68q79 -80 79 -213q0 -82 -30.5 -155t-89.5 -131q-66 -66 -160 -100.5t-221 -34.5h-268zM584 534q-26 26 -67.5 40.5t-104.5 14.5h-81l-121 -450h95q75 0 139.5 22.5t109.5 67.5q35 36 54.5 84t19.5 102q0 39 -11.5 68.5t-32.5 50.5z" />
    <glyph glyph-name="E" unicode="E" horiz-adv-x="701" 
d="M214 728h543l-37 -137h-390l-41 -157h342l-37 -135h-342l-44 -162h395l-37 -137h-547z" />
    <glyph glyph-name="F" unicode="F" horiz-adv-x="699" 
d="M214 728h552l-38 -140h-398l-44 -163h352l-37 -140h-352l-76 -285h-154z" />
    <glyph glyph-name="G" unicode="G" horiz-adv-x="822" 
d="M416 -13q-63 0 -124 19t-109 58t-78 98.5t-30 140.5q0 86 34 164.5t96 140.5q61 60 143.5 96t180.5 36q58 0 104 -10.5t82.5 -27.5t63.5 -40t46 -48l-114 -100q-32 35 -78 60.5t-116 25.5q-57 0 -107 -22t-88 -60q-40 -40 -63.5 -94.5t-23.5 -115.5q0 -44 15 -77.5
t41 -56t60.5 -34.5t74.5 -12q44 0 76.5 9t58.5 21l36 126h-166l36 133h315l-102 -360q-55 -32 -119 -51t-145 -19z" />
    <glyph glyph-name="G" unicode="&#x122;" horiz-adv-x="822" 
d="M416 -13q-63 0 -124 19t-109 58t-78 98.5t-30 140.5q0 86 34 164.5t96 140.5q61 60 143.5 96t180.5 36q58 0 104 -10.5t82.5 -27.5t63.5 -40t46 -48l-114 -100q-32 35 -78 60.5t-116 25.5q-57 0 -107 -22t-88 -60q-40 -40 -63.5 -94.5t-23.5 -115.5q0 -44 15 -77.5
t41 -56t60.5 -34.5t74.5 -12q44 0 76.5 9t58.5 21l36 126h-166l36 133h315l-102 -360q-55 -32 -119 -51t-145 -19z" />
    <glyph glyph-name="G" unicode="&#x120;" horiz-adv-x="822" 
d="M416 -13q-63 0 -124 19t-109 58t-78 98.5t-30 140.5q0 86 34 164.5t96 140.5q61 60 143.5 96t180.5 36q58 0 104 -10.5t82.5 -27.5t63.5 -40t46 -48l-114 -100q-32 35 -78 60.5t-116 25.5q-57 0 -107 -22t-88 -60q-40 -40 -63.5 -94.5t-23.5 -115.5q0 -44 15 -77.5
t41 -56t60.5 -34.5t74.5 -12q44 0 76.5 9t58.5 21l36 126h-166l36 133h315l-102 -360q-55 -32 -119 -51t-145 -19z" />
    <glyph glyph-name="G" unicode="&#x11e;" horiz-adv-x="822" 
d="M416 -13q-63 0 -124 19t-109 58t-78 98.5t-30 140.5q0 86 34 164.5t96 140.5q61 60 143.5 96t180.5 36q58 0 104 -10.5t82.5 -27.5t63.5 -40t46 -48l-114 -100q-32 35 -78 60.5t-116 25.5q-57 0 -107 -22t-88 -60q-40 -40 -63.5 -94.5t-23.5 -115.5q0 -44 15 -77.5
t41 -56t60.5 -34.5t74.5 -12q44 0 76.5 9t58.5 21l36 126h-166l36 133h315l-102 -360q-55 -32 -119 -51t-145 -19z" />
    <glyph glyph-name="H" unicode="H" horiz-adv-x="796" 
d="M214 728h154l-77 -291h301l78 291h153l-195 -728h-154l80 295h-301l-80 -295h-154z" />
    <glyph glyph-name="I" unicode="I" horiz-adv-x="356" 
d="M222 728h154l-196 -728h-154z" />
    <glyph glyph-name="J" unicode="J" horiz-adv-x="606" 
d="M201 -10q-71 0 -133.5 31t-100.5 93l109 94q30 -40 61.5 -58t71.5 -18q30 0 55 11t45 31q9 9 16 19.5t14.5 27.5t15.5 41.5t18 60.5l108 405h158l-118 -442q-11 -42 -22 -74t-23 -58t-27 -47t-34 -40q-40 -40 -93 -58.5t-121 -18.5z" />
    <glyph glyph-name="K" unicode="K" horiz-adv-x="765" 
d="M214 728h154l-88 -331l373 331h208l-358 -306l175 -422h-169l-128 330l-155 -132l-53 -198h-154z" />
    <glyph glyph-name="K" unicode="&#x136;" horiz-adv-x="765" 
d="M214 728h154l-88 -331l373 331h208l-358 -306l175 -422h-169l-128 330l-155 -132l-53 -198h-154z" />
    <glyph glyph-name="L" unicode="L" horiz-adv-x="659" 
d="M214 728h154l-157 -588h367l-38 -140h-521z" />
    <glyph glyph-name="L" unicode="&#x13f;" horiz-adv-x="659" 
d="M214 728h154l-157 -588h367l-38 -140h-521z" />
    <glyph glyph-name="L" unicode="&#x13d;" horiz-adv-x="659" 
d="M214 728h154l-157 -588h367l-38 -140h-521z" />
    <glyph glyph-name="L" unicode="&#x13b;" horiz-adv-x="659" 
d="M214 728h154l-157 -588h367l-38 -140h-521z" />
    <glyph glyph-name="L" unicode="&#x139;" horiz-adv-x="659" 
d="M214 728h154l-157 -588h367l-38 -140h-521z" />
    <glyph glyph-name="M" unicode="M" horiz-adv-x="907" 
d="M214 728h157l109 -315l280 315h174l-195 -728h-153l129 485l-292 -318h-4l-120 315l-129 -482h-151z" />
    <glyph glyph-name="N" unicode="N" horiz-adv-x="827" 
d="M214 728h142l219 -473l128 473h152l-196 -728h-130l-228 488l-130 -488h-152z" />
    <glyph glyph-name="O" unicode="O" horiz-adv-x="876" 
d="M513 740q75 0 136 -24.5t104.5 -67.5t67.5 -102t24 -127q0 -85 -33.5 -164.5t-94.5 -140.5q-58 -58 -136 -92.5t-173 -34.5q-75 0 -136.5 24.5t-105 68t-67 102.5t-23.5 127q0 85 34 164.5t95 140.5q58 58 135.5 92t172.5 34zM426 129q52 0 96 20.5t77 53.5
q41 41 63.5 96.5t22.5 109.5q0 41 -12.5 76t-36.5 60.5t-59.5 39.5t-80.5 14q-53 0 -96.5 -20.5t-76.5 -53.5q-42 -41 -64.5 -96.5t-22.5 -109.5q0 -42 12.5 -76.5t36.5 -60t59.5 -39.5t81.5 -14z" />
    <glyph glyph-name="O" unicode="&#x1fe;" horiz-adv-x="876" 
d="M513 740q75 0 136 -24.5t104.5 -67.5t67.5 -102t24 -127q0 -85 -33.5 -164.5t-94.5 -140.5q-58 -58 -136 -92.5t-173 -34.5q-75 0 -136.5 24.5t-105 68t-67 102.5t-23.5 127q0 85 34 164.5t95 140.5q58 58 135.5 92t172.5 34zM426 129q52 0 96 20.5t77 53.5
q41 41 63.5 96.5t22.5 109.5q0 41 -12.5 76t-36.5 60.5t-59.5 39.5t-80.5 14q-53 0 -96.5 -20.5t-76.5 -53.5q-42 -41 -64.5 -96.5t-22.5 -109.5q0 -42 12.5 -76.5t36.5 -60t59.5 -39.5t81.5 -14z" />
    <glyph glyph-name="O" unicode="&#x150;" horiz-adv-x="876" 
d="M513 740q75 0 136 -24.5t104.5 -67.5t67.5 -102t24 -127q0 -85 -33.5 -164.5t-94.5 -140.5q-58 -58 -136 -92.5t-173 -34.5q-75 0 -136.5 24.5t-105 68t-67 102.5t-23.5 127q0 85 34 164.5t95 140.5q58 58 135.5 92t172.5 34zM426 129q52 0 96 20.5t77 53.5
q41 41 63.5 96.5t22.5 109.5q0 41 -12.5 76t-36.5 60.5t-59.5 39.5t-80.5 14q-53 0 -96.5 -20.5t-76.5 -53.5q-42 -41 -64.5 -96.5t-22.5 -109.5q0 -42 12.5 -76.5t36.5 -60t59.5 -39.5t81.5 -14z" />
    <glyph glyph-name="O" unicode="&#x14e;" horiz-adv-x="876" 
d="M513 740q75 0 136 -24.5t104.5 -67.5t67.5 -102t24 -127q0 -85 -33.5 -164.5t-94.5 -140.5q-58 -58 -136 -92.5t-173 -34.5q-75 0 -136.5 24.5t-105 68t-67 102.5t-23.5 127q0 85 34 164.5t95 140.5q58 58 135.5 92t172.5 34zM426 129q52 0 96 20.5t77 53.5
q41 41 63.5 96.5t22.5 109.5q0 41 -12.5 76t-36.5 60.5t-59.5 39.5t-80.5 14q-53 0 -96.5 -20.5t-76.5 -53.5q-42 -41 -64.5 -96.5t-22.5 -109.5q0 -42 12.5 -76.5t36.5 -60t59.5 -39.5t81.5 -14z" />
    <glyph glyph-name="O" unicode="&#x14c;" horiz-adv-x="876" 
d="M513 740q75 0 136 -24.5t104.5 -67.5t67.5 -102t24 -127q0 -85 -33.5 -164.5t-94.5 -140.5q-58 -58 -136 -92.5t-173 -34.5q-75 0 -136.5 24.5t-105 68t-67 102.5t-23.5 127q0 85 34 164.5t95 140.5q58 58 135.5 92t172.5 34zM426 129q52 0 96 20.5t77 53.5
q41 41 63.5 96.5t22.5 109.5q0 41 -12.5 76t-36.5 60.5t-59.5 39.5t-80.5 14q-53 0 -96.5 -20.5t-76.5 -53.5q-42 -41 -64.5 -96.5t-22.5 -109.5q0 -42 12.5 -76.5t36.5 -60t59.5 -39.5t81.5 -14z" />
    <glyph glyph-name="P" unicode="P" horiz-adv-x="715" 
d="M214 728h231q78 0 133 -17t94 -56q56 -56 56 -149q0 -57 -19 -103t-54 -81q-49 -48 -121 -73t-160 -25h-141l-60 -224h-154zM544 557q-33 32 -105 32h-109l-61 -230h113q102 0 151 49q34 34 34 85q0 19 -5.5 35.5t-17.5 28.5z" />
    <glyph glyph-name="Q" unicode="Q" horiz-adv-x="876" 
d="M513 740q75 0 136 -24.5t104.5 -67.5t67.5 -102t24 -127q0 -84 -32.5 -163t-92.5 -139l59 -77l-127 -85l-48 77q-44 -22 -93 -33.5t-103 -11.5q-75 0 -136.5 24.5t-105 68t-67 102.5t-23.5 127q0 85 34 164.5t95 140.5q58 58 135.5 92t172.5 34zM426 129q26 0 50.5 5.5
t47.5 15.5l-96 128l127 85l76 -121q26 38 40 81.5t14 85.5q0 41 -12.5 76t-36.5 60.5t-59.5 39.5t-80.5 14q-53 0 -96.5 -20.5t-76.5 -53.5q-42 -41 -64.5 -96.5t-22.5 -109.5q0 -42 12.5 -76.5t36.5 -60t59.5 -39.5t81.5 -14z" />
    <glyph glyph-name="R" unicode="R" horiz-adv-x="765" 
d="M362 237h-1h-125l-63 -237h-154l195 728h265q81 0 137 -18t92 -54q56 -56 56 -145q0 -52 -17.5 -96t-49.5 -76q-23 -23 -62.5 -47.5t-108.5 -39.5l126 -252h-175zM420 373q49 0 88.5 12t63.5 36q14 15 22.5 34.5t8.5 42.5q0 37 -23 60q-33 31 -109 31h-140l-58 -216h147z
" />
    <glyph glyph-name="R" unicode="&#x158;" horiz-adv-x="765" 
d="M362 237h-1h-125l-63 -237h-154l195 728h265q81 0 137 -18t92 -54q56 -56 56 -145q0 -52 -17.5 -96t-49.5 -76q-23 -23 -62.5 -47.5t-108.5 -39.5l126 -252h-175zM420 373q49 0 88.5 12t63.5 36q14 15 22.5 34.5t8.5 42.5q0 37 -23 60q-33 31 -109 31h-140l-58 -216h147z
" />
    <glyph glyph-name="R" unicode="&#x156;" horiz-adv-x="765" 
d="M362 237h-1h-125l-63 -237h-154l195 728h265q81 0 137 -18t92 -54q56 -56 56 -145q0 -52 -17.5 -96t-49.5 -76q-23 -23 -62.5 -47.5t-108.5 -39.5l126 -252h-175zM420 373q49 0 88.5 12t63.5 36q14 15 22.5 34.5t8.5 42.5q0 37 -23 60q-33 31 -109 31h-140l-58 -216h147z
" />
    <glyph glyph-name="R" unicode="&#x154;" horiz-adv-x="765" 
d="M362 237h-1h-125l-63 -237h-154l195 728h265q81 0 137 -18t92 -54q56 -56 56 -145q0 -52 -17.5 -96t-49.5 -76q-23 -23 -62.5 -47.5t-108.5 -39.5l126 -252h-175zM420 373q49 0 88.5 12t63.5 36q14 15 22.5 34.5t8.5 42.5q0 37 -23 60q-33 31 -109 31h-140l-58 -216h147z
" />
    <glyph glyph-name="S" unicode="S" horiz-adv-x="672" 
d="M312 -10q-211 0 -316 134l116 98q44 -48 93.5 -72.5t113.5 -24.5q51 0 84 22t33 58q0 14 -6 25.5t-20 23t-38 23.5t-61 27t-70 32.5t-57.5 41t-39 53.5t-14.5 70q0 47 17 86t47 69q39 39 97.5 60.5t125.5 21.5q94 0 160 -29t112 -79l-106 -106q-42 39 -83 59t-95 20
q-27 0 -47.5 -6.5t-34.5 -17.5t-21.5 -25t-7.5 -29t6 -26.5t21 -22.5t40 -23t63 -27t70.5 -33t56 -41t36.5 -53t13 -69q0 -50 -18 -89t-47 -68q-42 -42 -99.5 -62.5t-123.5 -20.5z" />
    <glyph glyph-name="S" unicode="&#x218;" horiz-adv-x="672" 
d="M312 -10q-211 0 -316 134l116 98q44 -48 93.5 -72.5t113.5 -24.5q51 0 84 22t33 58q0 14 -6 25.5t-20 23t-38 23.5t-61 27t-70 32.5t-57.5 41t-39 53.5t-14.5 70q0 47 17 86t47 69q39 39 97.5 60.5t125.5 21.5q94 0 160 -29t112 -79l-106 -106q-42 39 -83 59t-95 20
q-27 0 -47.5 -6.5t-34.5 -17.5t-21.5 -25t-7.5 -29t6 -26.5t21 -22.5t40 -23t63 -27t70.5 -33t56 -41t36.5 -53t13 -69q0 -50 -18 -89t-47 -68q-42 -42 -99.5 -62.5t-123.5 -20.5z" />
    <glyph glyph-name="S" unicode="&#x15e;" horiz-adv-x="672" 
d="M312 -10q-211 0 -316 134l116 98q44 -48 93.5 -72.5t113.5 -24.5q51 0 84 22t33 58q0 14 -6 25.5t-20 23t-38 23.5t-61 27t-70 32.5t-57.5 41t-39 53.5t-14.5 70q0 47 17 86t47 69q39 39 97.5 60.5t125.5 21.5q94 0 160 -29t112 -79l-106 -106q-42 39 -83 59t-95 20
q-27 0 -47.5 -6.5t-34.5 -17.5t-21.5 -25t-7.5 -29t6 -26.5t21 -22.5t40 -23t63 -27t70.5 -33t56 -41t36.5 -53t13 -69q0 -50 -18 -89t-47 -68q-42 -42 -99.5 -62.5t-123.5 -20.5z" />
    <glyph glyph-name="S" unicode="&#x15a;" horiz-adv-x="672" 
d="M312 -10q-211 0 -316 134l116 98q44 -48 93.5 -72.5t113.5 -24.5q51 0 84 22t33 58q0 14 -6 25.5t-20 23t-38 23.5t-61 27t-70 32.5t-57.5 41t-39 53.5t-14.5 70q0 47 17 86t47 69q39 39 97.5 60.5t125.5 21.5q94 0 160 -29t112 -79l-106 -106q-42 39 -83 59t-95 20
q-27 0 -47.5 -6.5t-34.5 -17.5t-21.5 -25t-7.5 -29t6 -26.5t21 -22.5t40 -23t63 -27t70.5 -33t56 -41t36.5 -53t13 -69q0 -50 -18 -89t-47 -68q-42 -42 -99.5 -62.5t-123.5 -20.5z" />
    <glyph glyph-name="T" unicode="T" horiz-adv-x="654" 
d="M331 586h-223l38 142h600l-38 -142h-223l-158 -586h-154z" />
    <glyph glyph-name="T" unicode="&#x21a;" horiz-adv-x="654" 
d="M331 586h-223l38 142h600l-38 -142h-223l-158 -586h-154z" />
    <glyph glyph-name="T" unicode="&#x164;" horiz-adv-x="654" 
d="M331 586h-223l38 142h600l-38 -142h-223l-158 -586h-154z" />
    <glyph glyph-name="T" unicode="&#x162;" horiz-adv-x="654" 
d="M331 586h-223l38 142h600l-38 -142h-223l-158 -586h-154z" />
    <glyph glyph-name="U" unicode="U" horiz-adv-x="804" 
d="M362 -11q-63 0 -113.5 16.5t-86 48t-54 77t-18.5 102.5q0 56 18 116l101 379h154l-106 -394q-5 -19 -8 -37.5t-3 -41.5q0 -56 33.5 -90.5t98.5 -34.5q74 0 122 48q24 24 42.5 58t30.5 81l110 411h154l-117 -434q-19 -70 -46.5 -124t-65.5 -92q-45 -45 -105 -67t-141 -22z
" />
    <glyph glyph-name="U" unicode="&#x172;" horiz-adv-x="804" 
d="M362 -11q-63 0 -113.5 16.5t-86 48t-54 77t-18.5 102.5q0 56 18 116l101 379h154l-106 -394q-5 -19 -8 -37.5t-3 -41.5q0 -56 33.5 -90.5t98.5 -34.5q74 0 122 48q24 24 42.5 58t30.5 81l110 411h154l-117 -434q-19 -70 -46.5 -124t-65.5 -92q-45 -45 -105 -67t-141 -22z
" />
    <glyph glyph-name="U" unicode="&#x170;" horiz-adv-x="804" 
d="M362 -11q-63 0 -113.5 16.5t-86 48t-54 77t-18.5 102.5q0 56 18 116l101 379h154l-106 -394q-5 -19 -8 -37.5t-3 -41.5q0 -56 33.5 -90.5t98.5 -34.5q74 0 122 48q24 24 42.5 58t30.5 81l110 411h154l-117 -434q-19 -70 -46.5 -124t-65.5 -92q-45 -45 -105 -67t-141 -22z
" />
    <glyph glyph-name="U" unicode="&#x16e;" horiz-adv-x="804" 
d="M362 -11q-63 0 -113.5 16.5t-86 48t-54 77t-18.5 102.5q0 56 18 116l101 379h154l-106 -394q-5 -19 -8 -37.5t-3 -41.5q0 -56 33.5 -90.5t98.5 -34.5q74 0 122 48q24 24 42.5 58t30.5 81l110 411h154l-117 -434q-19 -70 -46.5 -124t-65.5 -92q-45 -45 -105 -67t-141 -22z
" />
    <glyph glyph-name="U" unicode="&#x16c;" horiz-adv-x="804" 
d="M362 -11q-63 0 -113.5 16.5t-86 48t-54 77t-18.5 102.5q0 56 18 116l101 379h154l-106 -394q-5 -19 -8 -37.5t-3 -41.5q0 -56 33.5 -90.5t98.5 -34.5q74 0 122 48q24 24 42.5 58t30.5 81l110 411h154l-117 -434q-19 -70 -46.5 -124t-65.5 -92q-45 -45 -105 -67t-141 -22z
" />
    <glyph glyph-name="U" unicode="&#x16a;" horiz-adv-x="804" 
d="M362 -11q-63 0 -113.5 16.5t-86 48t-54 77t-18.5 102.5q0 56 18 116l101 379h154l-106 -394q-5 -19 -8 -37.5t-3 -41.5q0 -56 33.5 -90.5t98.5 -34.5q74 0 122 48q24 24 42.5 58t30.5 81l110 411h154l-117 -434q-19 -70 -46.5 -124t-65.5 -92q-45 -45 -105 -67t-141 -22z
" />
    <glyph glyph-name="V" unicode="V" horiz-adv-x="762" 
d="M136 728h165l53 -517l331 517h173l-490 -733h-136z" />
    <glyph glyph-name="W" unicode="W" horiz-adv-x="1160" 
d="M141 728h160l21 -502l299 504h132l33 -504l290 502h174l-446 -733h-142l-36 477l-291 -477h-141z" />
    <glyph glyph-name="W" unicode="&#x1e84;" horiz-adv-x="1160" 
d="M141 728h160l21 -502l299 504h132l33 -504l290 502h174l-446 -733h-142l-36 477l-291 -477h-141z" />
    <glyph glyph-name="W" unicode="&#x1e82;" horiz-adv-x="1160" 
d="M141 728h160l21 -502l299 504h132l33 -504l290 502h174l-446 -733h-142l-36 477l-291 -477h-141z" />
    <glyph glyph-name="W" unicode="&#x1e80;" horiz-adv-x="1160" 
d="M141 728h160l21 -502l299 504h132l33 -504l290 502h174l-446 -733h-142l-36 477l-291 -477h-141z" />
    <glyph glyph-name="W" unicode="&#x174;" horiz-adv-x="1160" 
d="M141 728h160l21 -502l299 504h132l33 -504l290 502h174l-446 -733h-142l-36 477l-291 -477h-141z" />
    <glyph glyph-name="X" unicode="X" horiz-adv-x="738" 
d="M307 377l-158 351h172l97 -239l211 239h197l-344 -368l163 -360h-172l-103 250l-220 -250h-196z" />
    <glyph glyph-name="Y" unicode="Y" horiz-adv-x="687" 
d="M262 288l-153 440h170l91 -307l257 307h186l-400 -455l-74 -273h-154z" />
    <glyph glyph-name="Y" unicode="&#x1ef2;" horiz-adv-x="687" 
d="M262 288l-153 440h170l91 -307l257 307h186l-400 -455l-74 -273h-154z" />
    <glyph glyph-name="Y" unicode="&#x176;" horiz-adv-x="687" 
d="M262 288l-153 440h170l91 -307l257 307h186l-400 -455l-74 -273h-154z" />
    <glyph glyph-name="Z" unicode="Z" horiz-adv-x="725" 
d="M16 116l521 477h-380l37 135h588l-32 -116l-520 -477h396l-36 -135h-605z" />
    <glyph glyph-name="Z" unicode="&#x17b;" horiz-adv-x="725" 
d="M16 116l521 477h-380l37 135h588l-32 -116l-520 -477h396l-36 -135h-605z" />
    <glyph glyph-name="Z" unicode="&#x179;" horiz-adv-x="725" 
d="M16 116l521 477h-380l37 135h588l-32 -116l-520 -477h396l-36 -135h-605z" />
    <glyph glyph-name="bracketleft" unicode="[" horiz-adv-x="491" 
d="M228 728h333l-32 -119h-187l-168 -625h187l-32 -119h-333z" />
    <glyph glyph-name="backslash" unicode="\" horiz-adv-x="559" 
d="M130 830h125l218 -963h-126z" />
    <glyph glyph-name="bracketright" unicode="]" horiz-adv-x="491" 
d="M273 -135h-333l32 119h187l168 625h-187l32 119h333z" />
    <glyph glyph-name="underscore" unicode="_" horiz-adv-x="634" 
d="M-83 -50h628l-31 -116h-629z" />
    <glyph glyph-name="grave" unicode="`" 
d="M268 743l135 57l67 -181h-104z" />
    <glyph glyph-name="a" unicode="a" horiz-adv-x="620" 
d="M176 -11q-36 0 -66 11t-51.5 31t-33.5 47.5t-12 60.5q0 42 14 75.5t39 58.5q33 32 81 49t106 17q47 0 86 -7t74 -18l3 8l4 20q2 10 2 22q0 31 -24.5 50t-84.5 19q-41 0 -79 -8.5t-70 -21.5l-24 120q43 18 94.5 28.5t110.5 10.5q112 0 168 -44.5t56 -126.5
q0 -22 -3.5 -42.5t-8.5 -40.5l-82 -308h-147l17 66q-34 -36 -76 -56.5t-93 -20.5zM240 94q25 0 48.5 9.5t43 25t34 36.5t21.5 45l4 17q-21 8 -50 14t-60 6q-29 0 -53.5 -8.5t-39.5 -24.5q-24 -24 -24 -58q0 -27 20.5 -44.5t55.5 -17.5z" />
    <glyph glyph-name="a" unicode="&#x1fb;" horiz-adv-x="620" 
d="M176 -11q-36 0 -66 11t-51.5 31t-33.5 47.5t-12 60.5q0 42 14 75.5t39 58.5q33 32 81 49t106 17q47 0 86 -7t74 -18l3 8l4 20q2 10 2 22q0 31 -24.5 50t-84.5 19q-41 0 -79 -8.5t-70 -21.5l-24 120q43 18 94.5 28.5t110.5 10.5q112 0 168 -44.5t56 -126.5
q0 -22 -3.5 -42.5t-8.5 -40.5l-82 -308h-147l17 66q-34 -36 -76 -56.5t-93 -20.5zM240 94q25 0 48.5 9.5t43 25t34 36.5t21.5 45l4 17q-21 8 -50 14t-60 6q-29 0 -53.5 -8.5t-39.5 -24.5q-24 -24 -24 -58q0 -27 20.5 -44.5t55.5 -17.5z" />
    <glyph glyph-name="a" unicode="&#x105;" horiz-adv-x="620" 
d="M176 -11q-36 0 -66 11t-51.5 31t-33.5 47.5t-12 60.5q0 42 14 75.5t39 58.5q33 32 81 49t106 17q47 0 86 -7t74 -18l3 8l4 20q2 10 2 22q0 31 -24.5 50t-84.5 19q-41 0 -79 -8.5t-70 -21.5l-24 120q43 18 94.5 28.5t110.5 10.5q112 0 168 -44.5t56 -126.5
q0 -22 -3.5 -42.5t-8.5 -40.5l-82 -308h-147l17 66q-34 -36 -76 -56.5t-93 -20.5zM240 94q25 0 48.5 9.5t43 25t34 36.5t21.5 45l4 17q-21 8 -50 14t-60 6q-29 0 -53.5 -8.5t-39.5 -24.5q-24 -24 -24 -58q0 -27 20.5 -44.5t55.5 -17.5z" />
    <glyph glyph-name="a" unicode="&#x103;" horiz-adv-x="620" 
d="M176 -11q-36 0 -66 11t-51.5 31t-33.5 47.5t-12 60.5q0 42 14 75.5t39 58.5q33 32 81 49t106 17q47 0 86 -7t74 -18l3 8l4 20q2 10 2 22q0 31 -24.5 50t-84.5 19q-41 0 -79 -8.5t-70 -21.5l-24 120q43 18 94.5 28.5t110.5 10.5q112 0 168 -44.5t56 -126.5
q0 -22 -3.5 -42.5t-8.5 -40.5l-82 -308h-147l17 66q-34 -36 -76 -56.5t-93 -20.5zM240 94q25 0 48.5 9.5t43 25t34 36.5t21.5 45l4 17q-21 8 -50 14t-60 6q-29 0 -53.5 -8.5t-39.5 -24.5q-24 -24 -24 -58q0 -27 20.5 -44.5t55.5 -17.5z" />
    <glyph glyph-name="a" unicode="&#x101;" horiz-adv-x="620" 
d="M176 -11q-36 0 -66 11t-51.5 31t-33.5 47.5t-12 60.5q0 42 14 75.5t39 58.5q33 32 81 49t106 17q47 0 86 -7t74 -18l3 8l4 20q2 10 2 22q0 31 -24.5 50t-84.5 19q-41 0 -79 -8.5t-70 -21.5l-24 120q43 18 94.5 28.5t110.5 10.5q112 0 168 -44.5t56 -126.5
q0 -22 -3.5 -42.5t-8.5 -40.5l-82 -308h-147l17 66q-34 -36 -76 -56.5t-93 -20.5zM240 94q25 0 48.5 9.5t43 25t34 36.5t21.5 45l4 17q-21 8 -50 14t-60 6q-29 0 -53.5 -8.5t-39.5 -24.5q-24 -24 -24 -58q0 -27 20.5 -44.5t55.5 -17.5z" />
    <glyph glyph-name="b" unicode="b" horiz-adv-x="710" 
d="M354 -11q-67 0 -108.5 26.5t-68.5 68.5l-23 -84h-151l203 759h152l-72 -266q36 35 74.5 54t86.5 19q46 0 85 -16t67.5 -46.5t45 -75t16.5 -100.5q0 -77 -27 -140t-73 -108q-43 -43 -96.5 -67t-110.5 -24zM334 117q30 0 58.5 13t51.5 36q27 27 43.5 65.5t16.5 86.5
q0 57 -32.5 88.5t-86.5 31.5q-31 0 -60 -13t-52 -36q-29 -29 -45.5 -67t-16.5 -82q0 -55 34.5 -89t88.5 -34z" />
    <glyph glyph-name="c" unicode="c" horiz-adv-x="593" 
d="M307 -12q-56 0 -103 17.5t-81.5 50.5t-54 79t-19.5 103q0 68 25.5 127t70.5 104t105 71t127 26q46 0 81.5 -10t63.5 -26.5t48 -39t34 -47.5l-116 -81q-21 32 -48 53t-75 21q-29 0 -55.5 -12.5t-48.5 -34.5q-28 -28 -45 -67.5t-17 -83.5q0 -57 33 -89t81 -32q38 0 67 14.5
t61 41.5l78 -99q-22 -20 -44.5 -35.5t-48 -27t-54.5 -17.5t-65 -6z" />
    <glyph glyph-name="c" unicode="&#x10d;" horiz-adv-x="593" 
d="M307 -12q-56 0 -103 17.5t-81.5 50.5t-54 79t-19.5 103q0 68 25.5 127t70.5 104t105 71t127 26q46 0 81.5 -10t63.5 -26.5t48 -39t34 -47.5l-116 -81q-21 32 -48 53t-75 21q-29 0 -55.5 -12.5t-48.5 -34.5q-28 -28 -45 -67.5t-17 -83.5q0 -57 33 -89t81 -32q38 0 67 14.5
t61 41.5l78 -99q-22 -20 -44.5 -35.5t-48 -27t-54.5 -17.5t-65 -6z" />
    <glyph glyph-name="c" unicode="&#x10b;" horiz-adv-x="593" 
d="M307 -12q-56 0 -103 17.5t-81.5 50.5t-54 79t-19.5 103q0 68 25.5 127t70.5 104t105 71t127 26q46 0 81.5 -10t63.5 -26.5t48 -39t34 -47.5l-116 -81q-21 32 -48 53t-75 21q-29 0 -55.5 -12.5t-48.5 -34.5q-28 -28 -45 -67.5t-17 -83.5q0 -57 33 -89t81 -32q38 0 67 14.5
t61 41.5l78 -99q-22 -20 -44.5 -35.5t-48 -27t-54.5 -17.5t-65 -6z" />
    <glyph glyph-name="c" unicode="&#x107;" horiz-adv-x="593" 
d="M307 -12q-56 0 -103 17.5t-81.5 50.5t-54 79t-19.5 103q0 68 25.5 127t70.5 104t105 71t127 26q46 0 81.5 -10t63.5 -26.5t48 -39t34 -47.5l-116 -81q-21 32 -48 53t-75 21q-29 0 -55.5 -12.5t-48.5 -34.5q-28 -28 -45 -67.5t-17 -83.5q0 -57 33 -89t81 -32q38 0 67 14.5
t61 41.5l78 -99q-22 -20 -44.5 -35.5t-48 -27t-54.5 -17.5t-65 -6z" />
    <glyph glyph-name="d" unicode="d" horiz-adv-x="710" 
d="M423 63q-36 -35 -74 -54.5t-86 -19.5q-46 0 -85 16t-68 47t-45.5 75.5t-16.5 100.5q0 76 27.5 139.5t72.5 108.5q43 43 97 66.5t111 23.5q67 0 108.5 -26t68.5 -69l77 288h152l-204 -759h-152zM325 117q31 0 60 13.5t52 36.5q29 29 45.5 67t16.5 82q0 54 -34.5 88
t-89.5 34q-30 0 -58 -12.5t-51 -35.5q-27 -27 -44 -66t-17 -86q0 -57 32.5 -89t87.5 -32z" />
    <glyph glyph-name="e" unicode="e" horiz-adv-x="640" 
d="M190 225v-1q4 -51 35.5 -83t95.5 -31q33 0 62.5 10.5t64.5 35.5l71 -94q-38 -32 -90.5 -53t-124.5 -21q-59 0 -106.5 17t-80.5 48.5t-51 77.5t-18 103q0 65 26.5 127.5t74.5 110.5q43 43 101 68.5t127 25.5q54 0 96 -16.5t71.5 -45.5t44.5 -68.5t15 -85.5q0 -60 -28 -125
h-386zM251 396q-30 -30 -47 -75h252q5 17 5 36q0 37 -22.5 62t-72.5 25q-34 0 -63 -12.5t-52 -35.5z" />
    <glyph glyph-name="e" unicode="&#x11b;" horiz-adv-x="640" 
d="M190 225v-1q4 -51 35.5 -83t95.5 -31q33 0 62.5 10.5t64.5 35.5l71 -94q-38 -32 -90.5 -53t-124.5 -21q-59 0 -106.5 17t-80.5 48.5t-51 77.5t-18 103q0 65 26.5 127.5t74.5 110.5q43 43 101 68.5t127 25.5q54 0 96 -16.5t71.5 -45.5t44.5 -68.5t15 -85.5q0 -60 -28 -125
h-386zM251 396q-30 -30 -47 -75h252q5 17 5 36q0 37 -22.5 62t-72.5 25q-34 0 -63 -12.5t-52 -35.5z" />
    <glyph glyph-name="e" unicode="&#x119;" horiz-adv-x="640" 
d="M190 225v-1q4 -51 35.5 -83t95.5 -31q33 0 62.5 10.5t64.5 35.5l71 -94q-38 -32 -90.5 -53t-124.5 -21q-59 0 -106.5 17t-80.5 48.5t-51 77.5t-18 103q0 65 26.5 127.5t74.5 110.5q43 43 101 68.5t127 25.5q54 0 96 -16.5t71.5 -45.5t44.5 -68.5t15 -85.5q0 -60 -28 -125
h-386zM251 396q-30 -30 -47 -75h252q5 17 5 36q0 37 -22.5 62t-72.5 25q-34 0 -63 -12.5t-52 -35.5z" />
    <glyph glyph-name="e" unicode="&#x117;" horiz-adv-x="640" 
d="M190 225v-1q4 -51 35.5 -83t95.5 -31q33 0 62.5 10.5t64.5 35.5l71 -94q-38 -32 -90.5 -53t-124.5 -21q-59 0 -106.5 17t-80.5 48.5t-51 77.5t-18 103q0 65 26.5 127.5t74.5 110.5q43 43 101 68.5t127 25.5q54 0 96 -16.5t71.5 -45.5t44.5 -68.5t15 -85.5q0 -60 -28 -125
h-386zM251 396q-30 -30 -47 -75h252q5 17 5 36q0 37 -22.5 62t-72.5 25q-34 0 -63 -12.5t-52 -35.5z" />
    <glyph glyph-name="e" unicode="&#x115;" horiz-adv-x="640" 
d="M190 225v-1q4 -51 35.5 -83t95.5 -31q33 0 62.5 10.5t64.5 35.5l71 -94q-38 -32 -90.5 -53t-124.5 -21q-59 0 -106.5 17t-80.5 48.5t-51 77.5t-18 103q0 65 26.5 127.5t74.5 110.5q43 43 101 68.5t127 25.5q54 0 96 -16.5t71.5 -45.5t44.5 -68.5t15 -85.5q0 -60 -28 -125
h-386zM251 396q-30 -30 -47 -75h252q5 17 5 36q0 37 -22.5 62t-72.5 25q-34 0 -63 -12.5t-52 -35.5z" />
    <glyph glyph-name="e" unicode="&#x113;" horiz-adv-x="640" 
d="M190 225v-1q4 -51 35.5 -83t95.5 -31q33 0 62.5 10.5t64.5 35.5l71 -94q-38 -32 -90.5 -53t-124.5 -21q-59 0 -106.5 17t-80.5 48.5t-51 77.5t-18 103q0 65 26.5 127.5t74.5 110.5q43 43 101 68.5t127 25.5q54 0 96 -16.5t71.5 -45.5t44.5 -68.5t15 -85.5q0 -60 -28 -125
h-386zM251 396q-30 -30 -47 -75h252q5 17 5 36q0 37 -22.5 62t-72.5 25q-34 0 -63 -12.5t-52 -35.5z" />
    <glyph glyph-name="f" unicode="f" horiz-adv-x="434" 
d="M145 426h-66l35 130h66l6 25q11 46 27.5 76.5t37.5 51.5q57 57 160 57q65 0 108 -16l-33 -126q-34 14 -71 14q-62 0 -80 -64l-5 -18h138l-35 -130h-136l-114 -426h-152z" />
    <glyph glyph-name="g" unicode="g" horiz-adv-x="707" 
d="M264 -168q-84 0 -160 20.5t-132 58.5l81 104q44 -30 96 -46.5t105 -16.5q42 0 71.5 11t52.5 34q18 19 30 44t22 59l6 21q-44 -39 -84 -57.5t-93 -18.5q-41 0 -78.5 13t-66 37.5t-46 61t-17.5 84.5q0 72 26.5 131.5t71.5 104.5q42 42 95.5 65.5t110.5 23.5q37 0 64.5 -8
t47.5 -22t34.5 -32t25.5 -37l24 89h151l-120 -449q-11 -41 -21 -71t-21.5 -53t-24.5 -40.5t-29 -34.5q-38 -38 -92 -57t-130 -19zM318 167q34 0 65 13.5t54 36.5q24 24 37.5 53.5t13.5 62.5q0 49 -31.5 77.5t-83.5 28.5q-33 0 -61.5 -12.5t-51.5 -35.5q-25 -25 -38.5 -56
t-13.5 -66q0 -51 31 -76.5t79 -25.5z" />
    <glyph glyph-name="g" unicode="&#x123;" horiz-adv-x="707" 
d="M264 -168q-84 0 -160 20.5t-132 58.5l81 104q44 -30 96 -46.5t105 -16.5q42 0 71.5 11t52.5 34q18 19 30 44t22 59l6 21q-44 -39 -84 -57.5t-93 -18.5q-41 0 -78.5 13t-66 37.5t-46 61t-17.5 84.5q0 72 26.5 131.5t71.5 104.5q42 42 95.5 65.5t110.5 23.5q37 0 64.5 -8
t47.5 -22t34.5 -32t25.5 -37l24 89h151l-120 -449q-11 -41 -21 -71t-21.5 -53t-24.5 -40.5t-29 -34.5q-38 -38 -92 -57t-130 -19zM318 167q34 0 65 13.5t54 36.5q24 24 37.5 53.5t13.5 62.5q0 49 -31.5 77.5t-83.5 28.5q-33 0 -61.5 -12.5t-51.5 -35.5q-25 -25 -38.5 -56
t-13.5 -66q0 -51 31 -76.5t79 -25.5z" />
    <glyph glyph-name="g" unicode="&#x121;" horiz-adv-x="707" 
d="M264 -168q-84 0 -160 20.5t-132 58.5l81 104q44 -30 96 -46.5t105 -16.5q42 0 71.5 11t52.5 34q18 19 30 44t22 59l6 21q-44 -39 -84 -57.5t-93 -18.5q-41 0 -78.5 13t-66 37.5t-46 61t-17.5 84.5q0 72 26.5 131.5t71.5 104.5q42 42 95.5 65.5t110.5 23.5q37 0 64.5 -8
t47.5 -22t34.5 -32t25.5 -37l24 89h151l-120 -449q-11 -41 -21 -71t-21.5 -53t-24.5 -40.5t-29 -34.5q-38 -38 -92 -57t-130 -19zM318 167q34 0 65 13.5t54 36.5q24 24 37.5 53.5t13.5 62.5q0 49 -31.5 77.5t-83.5 28.5q-33 0 -61.5 -12.5t-51.5 -35.5q-25 -25 -38.5 -56
t-13.5 -66q0 -51 31 -76.5t79 -25.5z" />
    <glyph glyph-name="g" unicode="&#x11f;" horiz-adv-x="707" 
d="M264 -168q-84 0 -160 20.5t-132 58.5l81 104q44 -30 96 -46.5t105 -16.5q42 0 71.5 11t52.5 34q18 19 30 44t22 59l6 21q-44 -39 -84 -57.5t-93 -18.5q-41 0 -78.5 13t-66 37.5t-46 61t-17.5 84.5q0 72 26.5 131.5t71.5 104.5q42 42 95.5 65.5t110.5 23.5q37 0 64.5 -8
t47.5 -22t34.5 -32t25.5 -37l24 89h151l-120 -449q-11 -41 -21 -71t-21.5 -53t-24.5 -40.5t-29 -34.5q-38 -38 -92 -57t-130 -19zM318 167q34 0 65 13.5t54 36.5q24 24 37.5 53.5t13.5 62.5q0 49 -31.5 77.5t-83.5 28.5q-33 0 -61.5 -12.5t-51.5 -35.5q-25 -25 -38.5 -56
t-13.5 -66q0 -51 31 -76.5t79 -25.5z" />
    <glyph glyph-name="h" unicode="h" horiz-adv-x="655" 
d="M206 759h152l-71 -264q30 28 68 49.5t86 21.5q75 0 120 -43t45 -119q0 -23 -5.5 -50.5t-12.5 -53.5l-80 -300h-152l82 306q3 11 5.5 25.5t2.5 24.5q0 35 -21.5 54t-59.5 19q-48 0 -80.5 -32t-46.5 -85l-84 -312h-151z" />
    <glyph glyph-name="h" unicode="&#x127;" horiz-adv-x="655" 
d="M206 759h152l-71 -264q30 28 68 49.5t86 21.5q75 0 120 -43t45 -119q0 -23 -5.5 -50.5t-12.5 -53.5l-80 -300h-152l82 306q3 11 5.5 25.5t2.5 24.5q0 35 -21.5 54t-59.5 19q-48 0 -80.5 -32t-46.5 -85l-84 -312h-151z" />
    <glyph glyph-name="i" unicode="i" horiz-adv-x="321" 
d="M159 556h152l-149 -556h-152zM210 758h160l-37 -136h-160z" />
    <glyph glyph-name="i" unicode="&#x12f;" horiz-adv-x="321" 
d="M159 556h152l-149 -556h-152zM210 758h160l-37 -136h-160z" />
    <glyph glyph-name="i" unicode="&#x12d;" horiz-adv-x="321" 
d="M159 556h152l-149 -556h-152zM210 758h160l-37 -136h-160z" />
    <glyph glyph-name="i" unicode="&#x12b;" horiz-adv-x="321" 
d="M159 556h152l-149 -556h-152zM210 758h160l-37 -136h-160z" />
    <glyph glyph-name="j" unicode="j" horiz-adv-x="320" 
d="M-43 -170q-26 0 -46.5 2.5t-38.5 6.5l32 119q9 -2 18 -3.5t21 -1.5q26 0 45.5 19.5t29.5 55.5l141 528h152l-146 -547q-14 -50 -35 -84.5t-47.5 -55.5t-58.5 -30t-67 -9zM209 758h160l-36 -136h-160z" />
    <glyph glyph-name="k" unicode="k" horiz-adv-x="623" 
d="M206 759h152l-109 -403l237 200h198l-271 -219l124 -337h-170l-82 238l-86 -69l-45 -169h-151z" />
    <glyph glyph-name="k" unicode="&#x137;" horiz-adv-x="623" 
d="M206 759h152l-109 -403l237 200h198l-271 -219l124 -337h-170l-82 238l-86 -69l-45 -169h-151z" />
    <glyph glyph-name="l" unicode="l" horiz-adv-x="321" 
d="M214 759h151l-203 -759h-152z" />
    <glyph glyph-name="l" unicode="&#x140;" horiz-adv-x="321" 
d="M214 759h151l-203 -759h-152z" />
    <glyph glyph-name="l" unicode="&#x13e;" horiz-adv-x="321" 
d="M214 759h151l-203 -759h-152z" />
    <glyph glyph-name="l" unicode="&#x13c;" horiz-adv-x="321" 
d="M214 759h151l-203 -759h-152z" />
    <glyph glyph-name="l" unicode="&#x13a;" horiz-adv-x="321" 
d="M214 759h151l-203 -759h-152z" />
    <glyph glyph-name="m" unicode="m" horiz-adv-x="996" 
d="M152 556h152l-17 -61q31 28 66.5 49.5t83.5 21.5q58 0 95 -28t53 -74q37 45 87 73.5t114 28.5q75 0 118 -43.5t43 -118.5q0 -23 -5.5 -50.5t-12.5 -53.5l-80 -300h-152l82 306q3 11 5.5 25.5t2.5 24.5q0 73 -77 73q-48 0 -79 -32t-45 -85l-84 -312h-152l82 306
q3 11 5 25.5t2 24.5q0 73 -77 73q-48 0 -79 -32t-45 -85l-84 -312h-151z" />
    <glyph glyph-name="n" unicode="n" horiz-adv-x="655" 
d="M152 556h152l-17 -61q30 28 68 49.5t86 21.5q75 0 120 -43t45 -119q0 -23 -5.5 -50.5t-12.5 -53.5l-80 -300h-152l82 306q3 11 5.5 25.5t2.5 24.5q0 35 -21.5 54t-59.5 19q-48 0 -80.5 -32t-46.5 -85l-84 -312h-151z" />
    <glyph glyph-name="n" unicode="&#x148;" horiz-adv-x="655" 
d="M152 556h152l-17 -61q30 28 68 49.5t86 21.5q75 0 120 -43t45 -119q0 -23 -5.5 -50.5t-12.5 -53.5l-80 -300h-152l82 306q3 11 5.5 25.5t2.5 24.5q0 35 -21.5 54t-59.5 19q-48 0 -80.5 -32t-46.5 -85l-84 -312h-151z" />
    <glyph glyph-name="n" unicode="&#x146;" horiz-adv-x="655" 
d="M152 556h152l-17 -61q30 28 68 49.5t86 21.5q75 0 120 -43t45 -119q0 -23 -5.5 -50.5t-12.5 -53.5l-80 -300h-152l82 306q3 11 5.5 25.5t2.5 24.5q0 35 -21.5 54t-59.5 19q-48 0 -80.5 -32t-46.5 -85l-84 -312h-151z" />
    <glyph glyph-name="n" unicode="&#x144;" horiz-adv-x="655" 
d="M152 556h152l-17 -61q30 28 68 49.5t86 21.5q75 0 120 -43t45 -119q0 -23 -5.5 -50.5t-12.5 -53.5l-80 -300h-152l82 306q3 11 5.5 25.5t2.5 24.5q0 35 -21.5 54t-59.5 19q-48 0 -80.5 -32t-46.5 -85l-84 -312h-151z" />
    <glyph glyph-name="o" unicode="o" horiz-adv-x="687" 
d="M371 566q61 0 110.5 -19t84.5 -53.5t53.5 -81.5t18.5 -102q0 -64 -26 -123t-71 -104q-44 -44 -101.5 -69.5t-123.5 -25.5q-62 0 -111 19t-84 53.5t-53.5 81t-18.5 102.5q0 63 26 122t71 105q44 44 101.5 69.5t123.5 25.5zM323 117q31 0 58 13t47 33q29 29 45 68.5
t16 74.5q0 63 -34.5 96.5t-90.5 33.5q-31 0 -58 -12.5t-47 -32.5q-29 -29 -45 -68.5t-16 -74.5q0 -63 34.5 -97t90.5 -34z" />
    <glyph glyph-name="o" unicode="&#x1ff;" horiz-adv-x="687" 
d="M371 566q61 0 110.5 -19t84.5 -53.5t53.5 -81.5t18.5 -102q0 -64 -26 -123t-71 -104q-44 -44 -101.5 -69.5t-123.5 -25.5q-62 0 -111 19t-84 53.5t-53.5 81t-18.5 102.5q0 63 26 122t71 105q44 44 101.5 69.5t123.5 25.5zM323 117q31 0 58 13t47 33q29 29 45 68.5
t16 74.5q0 63 -34.5 96.5t-90.5 33.5q-31 0 -58 -12.5t-47 -32.5q-29 -29 -45 -68.5t-16 -74.5q0 -63 34.5 -97t90.5 -34z" />
    <glyph glyph-name="o" unicode="&#x151;" horiz-adv-x="687" 
d="M371 566q61 0 110.5 -19t84.5 -53.5t53.5 -81.5t18.5 -102q0 -64 -26 -123t-71 -104q-44 -44 -101.5 -69.5t-123.5 -25.5q-62 0 -111 19t-84 53.5t-53.5 81t-18.5 102.5q0 63 26 122t71 105q44 44 101.5 69.5t123.5 25.5zM323 117q31 0 58 13t47 33q29 29 45 68.5
t16 74.5q0 63 -34.5 96.5t-90.5 33.5q-31 0 -58 -12.5t-47 -32.5q-29 -29 -45 -68.5t-16 -74.5q0 -63 34.5 -97t90.5 -34z" />
    <glyph glyph-name="o" unicode="&#x14f;" horiz-adv-x="687" 
d="M371 566q61 0 110.5 -19t84.5 -53.5t53.5 -81.5t18.5 -102q0 -64 -26 -123t-71 -104q-44 -44 -101.5 -69.5t-123.5 -25.5q-62 0 -111 19t-84 53.5t-53.5 81t-18.5 102.5q0 63 26 122t71 105q44 44 101.5 69.5t123.5 25.5zM323 117q31 0 58 13t47 33q29 29 45 68.5
t16 74.5q0 63 -34.5 96.5t-90.5 33.5q-31 0 -58 -12.5t-47 -32.5q-29 -29 -45 -68.5t-16 -74.5q0 -63 34.5 -97t90.5 -34z" />
    <glyph glyph-name="o" unicode="&#x14d;" horiz-adv-x="687" 
d="M371 566q61 0 110.5 -19t84.5 -53.5t53.5 -81.5t18.5 -102q0 -64 -26 -123t-71 -104q-44 -44 -101.5 -69.5t-123.5 -25.5q-62 0 -111 19t-84 53.5t-53.5 81t-18.5 102.5q0 63 26 122t71 105q44 44 101.5 69.5t123.5 25.5zM323 117q31 0 58 13t47 33q29 29 45 68.5
t16 74.5q0 63 -34.5 96.5t-90.5 33.5q-31 0 -58 -12.5t-47 -32.5q-29 -29 -45 -68.5t-16 -74.5q0 -63 34.5 -97t90.5 -34z" />
    <glyph glyph-name="p" unicode="p" horiz-adv-x="710" 
d="M354 -11q-67 0 -108.5 26.5t-68.5 68.5l-67 -250h-152l194 722h152l-18 -63q36 35 74.5 54t86.5 19q46 0 85 -16t67.5 -46.5t45 -75t16.5 -100.5q0 -77 -27 -140t-73 -108q-43 -43 -96.5 -67t-110.5 -24zM334 117q30 0 58.5 13t51.5 36q27 27 43.5 65.5t16.5 86.5
q0 57 -32.5 88.5t-86.5 31.5q-31 0 -60 -13t-52 -36q-29 -29 -45.5 -67t-16.5 -82q0 -55 34.5 -89t88.5 -34z" />
    <glyph glyph-name="q" unicode="q" horiz-adv-x="710" 
d="M263 -11q-46 0 -85 16t-68 47t-45.5 75.5t-16.5 100.5q0 76 27.5 139.5t72.5 108.5q43 43 97 66.5t111 23.5q67 0 108.5 -26t68.5 -69l22 85h152l-194 -722h-152l62 229q-36 -35 -74 -54.5t-86 -19.5zM325 117q31 0 60 13.5t52 36.5q29 29 45.5 67t16.5 82q0 54 -34.5 88
t-89.5 34q-30 0 -58 -12.5t-51 -35.5q-27 -27 -44 -66t-17 -86q0 -57 32.5 -89t87.5 -32z" />
    <glyph glyph-name="r" unicode="r" horiz-adv-x="444" 
d="M152 556h152l-31 -115q43 63 94.5 96.5t121.5 28.5l-43 -159h-8q-80 0 -140 -49.5t-89 -158.5l-55 -199h-151z" />
    <glyph glyph-name="s" unicode="s" 
d="M231 -12q-32 0 -65.5 6t-66 18.5t-63 31t-54.5 44.5l88 91q44 -44 89 -59.5t83 -15.5q32 0 51.5 13.5t19.5 38.5q0 17 -18 29.5t-50 25.5q-33 14 -62.5 29t-51 33.5t-34.5 42.5t-13 57q0 41 15.5 76.5t44 61.5t69.5 40.5t93 14.5q33 0 65 -6.5t60 -18t51.5 -25.5
t40.5 -29l-82 -96q-40 32 -75.5 45.5t-70.5 13.5q-32 0 -49 -13.5t-17 -36.5q0 -17 19 -30.5t57 -30.5q28 -12 55.5 -26t49 -32.5t35 -42.5t13.5 -56q0 -45 -17 -81t-47.5 -61t-72 -38.5t-90.5 -13.5z" />
    <glyph glyph-name="t" unicode="t" horiz-adv-x="440" 
d="M206 -9q-72 0 -107 31t-35 78q0 17 2.5 33.5t7.5 34.5l69 258h-67l35 130h67l39 144h152l-39 -144h134l-35 -130h-134l-64 -240q-2 -7 -3.5 -14t-1.5 -12q0 -36 46 -36q19 0 40 5t41 13l-35 -129q-49 -22 -112 -22z" />
    <glyph glyph-name="t" unicode="&#x21b;" horiz-adv-x="440" 
d="M206 -9q-72 0 -107 31t-35 78q0 17 2.5 33.5t7.5 34.5l69 258h-67l35 130h67l39 144h152l-39 -144h134l-35 -130h-134l-64 -240q-2 -7 -3.5 -14t-1.5 -12q0 -36 46 -36q19 0 40 5t41 13l-35 -129q-49 -22 -112 -22z" />
    <glyph glyph-name="t" unicode="&#x165;" horiz-adv-x="440" 
d="M206 -9q-72 0 -107 31t-35 78q0 17 2.5 33.5t7.5 34.5l69 258h-67l35 130h67l39 144h152l-39 -144h134l-35 -130h-134l-64 -240q-2 -7 -3.5 -14t-1.5 -12q0 -36 46 -36q19 0 40 5t41 13l-35 -129q-49 -22 -112 -22z" />
    <glyph glyph-name="t" unicode="&#x163;" horiz-adv-x="440" 
d="M206 -9q-72 0 -107 31t-35 78q0 17 2.5 33.5t7.5 34.5l69 258h-67l35 130h67l39 144h152l-39 -144h134l-35 -130h-134l-64 -240q-2 -7 -3.5 -14t-1.5 -12q0 -36 46 -36q19 0 40 5t41 13l-35 -129q-49 -22 -112 -22z" />
    <glyph glyph-name="u" unicode="u" horiz-adv-x="655" 
d="M214 -11q-75 0 -120 43.5t-45 119.5q0 23 5.5 50.5t12.5 53.5l80 300h152l-82 -306q-3 -12 -5 -26t-2 -25q0 -35 21 -53.5t59 -18.5q48 0 80.5 32t46.5 85l84 312h151l-149 -556h-151l16 61q-30 -28 -68 -50t-86 -22z" />
    <glyph glyph-name="v" unicode="v" horiz-adv-x="623" 
d="M94 556h155l28 -378l228 378h163l-368 -560h-137z" />
    <glyph glyph-name="w" unicode="w" horiz-adv-x="901" 
d="M98 556h154l1 -346l201 348h131l15 -349l190 347h151l-326 -560h-136l-17 349l-206 -349h-135z" />
    <glyph glyph-name="x" unicode="x" horiz-adv-x="610" 
d="M333 396l137 160h181l-262 -281l124 -275h-162l-68 170l-148 -170h-181l274 290l-123 266h162z" />
    <glyph glyph-name="y" unicode="y" horiz-adv-x="624" 
d="M101 556h155l30 -384l216 384h164l-348 -570q-27 -42 -53 -72t-53.5 -48.5t-57.5 -27t-65 -8.5q-42 0 -72.5 10.5t-56.5 28.5l81 110q13 -10 30 -16.5t33 -6.5q20 0 35 8t33 32z" />
    <glyph glyph-name="y" unicode="&#x1ef3;" horiz-adv-x="624" 
d="M101 556h155l30 -384l216 384h164l-348 -570q-27 -42 -53 -72t-53.5 -48.5t-57.5 -27t-65 -8.5q-42 0 -72.5 10.5t-56.5 28.5l81 110q13 -10 30 -16.5t33 -6.5q20 0 35 8t33 32z" />
    <glyph glyph-name="y" unicode="&#x177;" horiz-adv-x="624" 
d="M101 556h155l30 -384l216 384h164l-348 -570q-27 -42 -53 -72t-53.5 -48.5t-57.5 -27t-65 -8.5q-42 0 -72.5 10.5t-56.5 28.5l81 110q13 -10 30 -16.5t33 -6.5q20 0 35 8t33 32z" />
    <glyph glyph-name="z" unicode="z" horiz-adv-x="589" 
d="M6 106l373 327h-275l33 123h470l-29 -107l-374 -326h290l-33 -123h-483z" />
    <glyph glyph-name="braceleft" unicode="{" horiz-adv-x="519" 
d="M326 -147q-105 20 -148.5 59.5t-43.5 100.5q0 19 5 40.5t16 51.5q8 20 12 40t4 33q0 14 -2.5 25.5t-11.5 20t-26 13t-46 4.5h-33l31 115h33q37 0 61.5 6.5t41.5 23.5q21 21 30.5 56t14.5 68q3 21 7.5 42t12 42t19 41t28.5 38q36 35 91 52t136 19l9 -102
q-49 -5 -79.5 -15.5t-50.5 -29.5q-22 -22 -29 -52t-12 -68q-2 -16 -5.5 -35t-9.5 -38.5t-15 -37.5t-22 -31q-23 -23 -51 -33.5t-66 -14.5q43 -7 65.5 -32t22.5 -61q0 -20 -5.5 -40.5t-12.5 -37.5q-7 -18 -12.5 -37.5t-5.5 -38.5q0 -17 4 -29.5t14.5 -23.5t29.5 -21t48 -20z
" />
    <glyph glyph-name="bar" unicode="|" horiz-adv-x="370" 
d="M273 830h120l-259 -963h-119z" />
    <glyph glyph-name="braceright" unicode="}" horiz-adv-x="519" 
d="M204 744q104 -20 148 -59.5t44 -100.5q0 -19 -5 -40.5t-16 -51.5q-8 -20 -12 -40t-4 -33q0 -14 2.5 -26t11.5 -20t26 -12.5t46 -4.5h33l-31 -115h-33q-37 0 -62 -6.5t-42 -23.5q-20 -21 -30 -56t-15 -68q-6 -41 -19 -84.5t-47 -78.5q-36 -35 -91 -52t-136 -19l-10 102
q50 5 80.5 15t50.5 30q22 22 29 52t12 68q2 16 5.5 35t9 38.5t14.5 37t22 31.5q23 23 51.5 33.5t65.5 14.5q-42 7 -64.5 32t-22.5 61q0 20 5.5 40.5t12.5 37.5q7 18 12.5 37.5t5.5 38.5q0 16 -4 29t-15 24t-29.5 20.5t-48.5 20.5z" />
    <glyph glyph-name="exclamdown" unicode="&#xa1;" horiz-adv-x="343" 
d="M192 24l-7 -24h-177l7 24l170 460h83zM330 566h-163l44 162h162z" />
    <glyph glyph-name="cent" unicode="&#xa2;" horiz-adv-x="618" 
d="M565 734l-38 -98q42 -17 71 -44.5t47 -58.5l-115 -80q-11 17 -25.5 32t-32.5 25l-118 -300h1q40 0 72.5 13.5t62.5 38.5l81 -103q-38 -33 -89.5 -56t-123.5 -23q-26 0 -48 3l-35 -89h-105l44 115q-66 30 -103 89t-37 140q0 67 24.5 124.5t67.5 100.5q45 45 105.5 70.5
t131.5 25.5q7 0 13.5 -0.5t13.5 -0.5l30 76h105zM223 340q0 -35 12.5 -60.5t34.5 -42.5l114 291h-1q-29 -3 -56 -16.5t-47 -33.5q-26 -26 -41.5 -63t-15.5 -75z" />
    <glyph glyph-name="sterling" unicode="&#xa3;" horiz-adv-x="679" 
d="M19 100l87 26l41 154h-79l34 127h79l27 100q27 100 83 158q37 36 84.5 54.5t108.5 18.5q84 0 138 -35.5t83 -88.5l-123 -84q-20 32 -43.5 49t-65.5 17q-26 0 -43 -8t-31 -22q-28 -30 -44 -85l-21 -74h245l-34 -127h-244l-39 -147h322l-36 -133h-556z" />
    <glyph glyph-name="yen" unicode="&#xa5;" horiz-adv-x="749" 
d="M251 98h-193l30 108h193l17 67h-193l29 108h152l-133 347h166l92 -277l243 277h183l-322 -347h153l-29 -108h-193l-17 -67h193l-29 -108h-194l-26 -98h-148z" />
    <glyph glyph-name="dieresis" unicode="&#xa8;" 
d="M209 756h147l-37 -137h-147zM429 756h147l-38 -137h-147z" />
    <glyph glyph-name="copyright" unicode="&#xa9;" horiz-adv-x="873" 
d="M436 163q-40 0 -73.5 12t-58 34.5t-38 54.5t-13.5 71q0 49 19 92.5t52 76.5q32 33 75.5 52.5t94.5 19.5q57 0 96.5 -23t63.5 -62l-72 -52q-17 25 -39.5 40.5t-57.5 15.5q-27 0 -51.5 -10.5t-44.5 -30.5q-20 -21 -32.5 -51.5t-12.5 -63.5q0 -47 26 -71t68 -24
q31 0 53 11.5t44 28.5l56 -60q-27 -26 -65.5 -43.5t-89.5 -17.5zM832 411q0 -85 -32 -164t-92 -139q-57 -57 -129 -88.5t-161 -31.5q-76 0 -138 25.5t-105.5 69.5t-67 104.5t-23.5 129.5q0 85 32 164t92 139q57 57 129.5 88.5t160.5 31.5q76 0 138 -25.5t105.5 -69.5
t67 -104.5t23.5 -129.5zM127 320q0 -60 19.5 -113.5t57 -93t92 -62.5t123.5 -23q78 0 142 27.5t114 77.5q55 56 84.5 126t29.5 151q0 60 -19.5 112.5t-57 92t-92 62.5t-123.5 23q-78 0 -141.5 -27.5t-113.5 -77.5q-56 -56 -85.5 -125.5t-29.5 -149.5z" />
    <glyph glyph-name="ordfeminine" unicode="&#xaa;" horiz-adv-x="416" 
d="M201 417q-40 0 -65 23t-25 59q0 27 10.5 47.5t28.5 34.5t42 21.5t52 7.5q25 0 47 -4.5t41 -10.5l2 7q3 10 3 19q0 17 -14 28t-46 11q-23 0 -44 -4.5t-38 -11.5l-14 67q24 10 52.5 15.5t61.5 5.5q61 0 92 -24.5t31 -69.5q0 -24 -6 -46l-46 -169h-82l10 36q-19 -20 -42 -31
t-51 -11zM237 474q27 0 50 19t29 46l3 8q-12 5 -27.5 8t-32.5 3q-29 0 -46.5 -13t-17.5 -36q0 -15 11 -25t31 -10zM77 356h275l-18 -67h-276z" />
    <glyph glyph-name="guillemotleft" unicode="&#xab;" horiz-adv-x="671" 
d="M53 265l2 8l255 239l77 -76l-174 -181l74 -170l-112 -50zM329 265l3 8l254 239l78 -76l-174 -181l73 -170l-112 -50z" />
    <glyph glyph-name="registered" unicode="&#xae;" horiz-adv-x="396" 
d="M292 738q36 0 66 -12.5t51 -34t32.5 -50.5t11.5 -62q0 -42 -15 -79t-44 -66t-64 -44.5t-77 -15.5q-37 0 -66.5 12.5t-50.5 34t-32.5 51t-11.5 62.5q0 42 15 79t44 66q59 59 141 59zM255 394q37 0 68 14t54 37q55 57 55 132q0 29 -9.5 55t-27.5 45.5t-44.5 30.5t-60.5 11
q-37 0 -68 -14t-54 -37q-55 -57 -55 -132q0 -29 9.5 -55t27.5 -45.5t44.5 -30.5t60.5 -11zM222 464h-52l51 191h75q23 0 37.5 -5.5t23 -13.5t12 -19t3.5 -21q0 -26 -15 -43t-41 -25l27 -64h-54l-24 58h-28zM279 563q14 0 21.5 3t12.5 8q6 6 6 16q0 12 -7.5 16t-20.5 4h-30
l-13 -47h31z" />
    <glyph glyph-name="macron" unicode="&#xaf;" 
d="M201 731h371l-28 -106h-371z" />
    <glyph glyph-name="degree" unicode="&#xb0;" horiz-adv-x="468" 
d="M294 734q37 0 67 -11.5t51 -32.5t32 -49.5t11 -61.5q0 -39 -16 -75t-43 -63q-26 -26 -60.5 -41t-73.5 -15q-38 0 -68 11.5t-51 32.5t-32 49.5t-11 62.5q0 39 16 74.5t43 62.5q26 26 60.5 41t74.5 15zM266 461q21 0 39.5 8t31.5 22q36 36 36 85q0 38 -23 60t-61 22
q-42 0 -71 -29q-36 -36 -36 -85q0 -38 23 -60.5t61 -22.5z" />
    <glyph glyph-name="acute" unicode="&#xb4;" 
d="M389 800l129 -57l-166 -124h-128z" />
    <glyph glyph-name="periodcentered" unicode="&#xb7;" horiz-adv-x="336" 
d="M116 402h163l-44 -161h-162z" />
    <glyph glyph-name="cedilla" unicode="&#xb8;" 
d="M52 -125l129 135h113l-128 -188z" />
    <glyph glyph-name="ordmasculine" unicode="&#xba;" horiz-adv-x="427" 
d="M77 356h288l-18 -67h-288zM197 560q0 -32 18 -52.5t49 -20.5q17 0 32.5 7t27.5 19q14 14 22.5 34.5t8.5 41.5q0 32 -18.5 52t-49.5 20q-33 0 -60 -25q-14 -14 -22 -35t-8 -41zM437 592q0 -72 -54 -126q-23 -23 -54 -37t-68 -14q-68 0 -107.5 40t-39.5 101q0 36 14 68
t40 58q23 23 54.5 37t67.5 14q68 0 107.5 -39.5t39.5 -101.5z" />
    <glyph glyph-name="guillemotright" unicode="&#xbb;" horiz-adv-x="671" 
d="M616 282l-2 -8l-255 -239l-78 76l175 181l-74 170l112 50zM339 282l-2 -8l-255 -239l-77 76l174 181l-74 170l112 50z" />
    <glyph glyph-name="questiondown" unicode="&#xbf;" horiz-adv-x="575" 
d="M410 315l-7 -5q-101 -7 -156 -35t-55 -76q0 -32 22.5 -50.5t68.5 -18.5q39 0 78.5 17.5t73.5 46.5l80 -101q-50 -51 -116 -76.5t-137 -25.5q-54 0 -97 15.5t-72.5 41.5t-45 60t-15.5 71q0 93 67.5 151t198.5 78l31 76h102zM481 566h-163l44 162h162z" />
    <glyph glyph-name="Agrave" unicode="&#xc0;" horiz-adv-x="805" 
d="M457 733h148l117 -733h-158l-23 166h-315l-113 -166h-166zM522 302l-36 251l-168 -251h204zM376 899l136 58l80 -161h-104z" />
    <glyph glyph-name="Aacute" unicode="&#xc1;" horiz-adv-x="805" 
d="M457 733h148l117 -733h-158l-23 166h-315l-113 -166h-166zM522 302l-36 251l-168 -251h204zM651 957l128 -58l-167 -103h-129z" />
    <glyph glyph-name="Acircumflex" unicode="&#xc2;" horiz-adv-x="805" 
d="M457 733h148l117 -733h-158l-23 166h-315l-113 -166h-166zM522 302l-36 251l-168 -251h204zM507 942h143l92 -150h-113l-66 58l-97 -58h-131z" />
    <glyph glyph-name="Atilde" unicode="&#xc3;" horiz-adv-x="805" 
d="M457 733h148l117 -733h-158l-23 166h-315l-113 -166h-166zM522 302l-36 251l-168 -251h204zM340 813q28 65 61 101.5t86 36.5q26 0 48.5 -7t44.5 -16q17 -7 32 -12.5t28 -5.5q24 0 38.5 13t30.5 38l81 -28q-29 -65 -61 -101t-85 -36q-26 0 -49 7t-44 16q-17 7 -32.5 12
t-28.5 5q-23 0 -38 -12.5t-31 -38.5z" />
    <glyph glyph-name="Adieresis" unicode="&#xc4;" horiz-adv-x="805" 
d="M457 733h148l117 -733h-158l-23 166h-315l-113 -166h-166zM522 302l-36 251l-168 -251h204zM399 925h148l-36 -129h-147zM623 925h148l-36 -129h-147z" />
    <glyph glyph-name="Aring" unicode="&#xc5;" horiz-adv-x="805" 
d="M435 700q-21 27 -21 58q0 25 9 48t27 41t44.5 28.5t60.5 10.5q25 0 46 -8t37 -21.5t25 -31.5t9 -39q0 -32 -15 -60.5t-44 -46.5l109 -679h-158l-23 166h-315l-113 -166h-166zM522 302l-36 251l-168 -251h204zM534 712q35 0 55.5 21.5t20.5 46.5q0 23 -16.5 37.5
t-42.5 14.5q-35 0 -55 -21.5t-20 -46.5q0 -23 16 -37.5t42 -14.5z" />
    <glyph glyph-name="AE" unicode="&#xc6;" horiz-adv-x="1110" 
d="M534 728h632l-37 -137h-369l-42 -157h322l-37 -135h-322l-44 -162h376l-37 -137h-528l45 166h-250l-132 -166h-168zM530 302l78 293h-20l-236 -293h178z" />
    <glyph glyph-name="AE" unicode="&#x1fc;" horiz-adv-x="1110" 
d="M534 728h632l-37 -137h-369l-42 -157h322l-37 -135h-322l-44 -162h376l-37 -137h-528l45 166h-250l-132 -166h-168zM530 302l78 293h-20l-236 -293h178z" />
    <glyph glyph-name="Ccedilla" unicode="&#xc7;" horiz-adv-x="766" 
d="M182 -125l121 127q-51 14 -93 41.5t-71.5 65.5t-46 87t-16.5 107q0 88 34.5 167t95.5 140q60 60 140.5 95t172.5 35q105 0 175.5 -41.5t114.5 -113.5l-127 -88q-16 23 -34 41.5t-40 32t-48.5 21t-59.5 7.5q-49 0 -94 -20.5t-81 -56.5q-41 -41 -65 -95.5t-24 -117.5
q0 -41 13.5 -74t37.5 -56.5t57.5 -36.5t73.5 -13q55 0 94.5 20t80.5 54l100 -103q-52 -49 -118.5 -81t-157.5 -32h-9l-112 -165z" />
    <glyph glyph-name="Egrave" unicode="&#xc8;" horiz-adv-x="701" 
d="M326 889l136 58l80 -161h-104zM214 728h543l-37 -137h-390l-41 -157h342l-37 -135h-342l-44 -162h395l-37 -137h-547z" />
    <glyph glyph-name="Eacute" unicode="&#xc9;" horiz-adv-x="701" 
d="M601 947l128 -58l-167 -103h-129zM214 728h543l-37 -137h-390l-41 -157h342l-37 -135h-342l-44 -162h395l-37 -137h-547z" />
    <glyph glyph-name="Ecircumflex" unicode="&#xca;" horiz-adv-x="701" 
d="M214 728h543l-37 -137h-390l-41 -157h342l-37 -135h-342l-44 -162h395l-37 -137h-547zM460 936h143l92 -150h-113l-66 58l-97 -58h-131z" />
    <glyph glyph-name="Edieresis" unicode="&#xcb;" horiz-adv-x="701" 
d="M349 915h148l-36 -129h-147zM573 915h148l-36 -129h-147zM214 728h543l-37 -137h-390l-41 -157h342l-37 -135h-342l-44 -162h395l-37 -137h-547z" />
    <glyph glyph-name="Igrave" unicode="&#xcc;" horiz-adv-x="356" 
d="M222 728h154l-196 -728h-154zM141 889l136 58l80 -161h-104z" />
    <glyph glyph-name="Iacute" unicode="&#xcd;" horiz-adv-x="356" 
d="M222 728h154l-196 -728h-154zM416 947l128 -58l-167 -103h-129z" />
    <glyph glyph-name="Icircumflex" unicode="&#xce;" horiz-adv-x="356" 
d="M222 728h154l-196 -728h-154zM275 936h143l92 -150h-113l-66 58l-97 -58h-131z" />
    <glyph glyph-name="Idieresis" unicode="&#xcf;" horiz-adv-x="356" 
d="M222 728h154l-196 -728h-154zM164 915h148l-36 -129h-147zM388 915h148l-36 -129h-147z" />
    <glyph glyph-name="Eth" unicode="&#xd0;" horiz-adv-x="839" 
d="M124 313h-86l29 106h86l83 309h209q105 0 174 -26t111 -68q79 -79 79 -213q0 -82 -30 -155t-89 -131q-66 -66 -160.5 -100.5t-220.5 -34.5h-269zM278 313l-47 -174h96q75 0 139 22.5t109 67.5q36 36 55 84t19 102q0 39 -11.5 68.5t-32.5 50.5q-25 26 -67 40.5t-105 14.5
h-81l-46 -170h154l-29 -106h-153z" />
    <glyph glyph-name="Ntilde" unicode="&#xd1;" horiz-adv-x="827" 
d="M341 803q28 65 61 101.5t86 36.5q26 0 48.5 -7t44.5 -16q17 -7 32 -12.5t28 -5.5q24 0 38.5 13t30.5 38l81 -28q-29 -65 -61 -101t-85 -36q-26 0 -49 7t-44 16q-17 7 -32.5 12t-28.5 5q-23 0 -38 -12.5t-31 -38.5zM214 728h142l219 -473l128 473h152l-196 -728h-130
l-228 488l-130 -488h-152z" />
    <glyph glyph-name="Ograve" unicode="&#xd2;" horiz-adv-x="876" 
d="M395 899l136 58l80 -161h-104zM513 740q75 0 136 -24.5t104.5 -67.5t67.5 -102t24 -127q0 -85 -33.5 -164.5t-94.5 -140.5q-58 -58 -136 -92.5t-173 -34.5q-75 0 -136.5 24.5t-105 68t-67 102.5t-23.5 127q0 85 34 164.5t95 140.5q58 58 135.5 92t172.5 34zM426 129
q52 0 96 20.5t77 53.5q41 41 63.5 96.5t22.5 109.5q0 41 -12.5 76t-36.5 60.5t-59.5 39.5t-80.5 14q-53 0 -96.5 -20.5t-76.5 -53.5q-42 -41 -64.5 -96.5t-22.5 -109.5q0 -42 12.5 -76.5t36.5 -60t59.5 -39.5t81.5 -14z" />
    <glyph glyph-name="Oacute" unicode="&#xd3;" horiz-adv-x="876" 
d="M662 957l128 -58l-167 -103h-129zM513 740q75 0 136 -24.5t104.5 -67.5t67.5 -102t24 -127q0 -85 -33.5 -164.5t-94.5 -140.5q-58 -58 -136 -92.5t-173 -34.5q-75 0 -136.5 24.5t-105 68t-67 102.5t-23.5 127q0 85 34 164.5t95 140.5q58 58 135.5 92t172.5 34zM426 129
q52 0 96 20.5t77 53.5q41 41 63.5 96.5t22.5 109.5q0 41 -12.5 76t-36.5 60.5t-59.5 39.5t-80.5 14q-53 0 -96.5 -20.5t-76.5 -53.5q-42 -41 -64.5 -96.5t-22.5 -109.5q0 -42 12.5 -76.5t36.5 -60t59.5 -39.5t81.5 -14z" />
    <glyph glyph-name="Ocircumflex" unicode="&#xd4;" horiz-adv-x="876" 
d="M513 740q75 0 136 -24.5t104.5 -67.5t67.5 -102t24 -127q0 -85 -33.5 -164.5t-94.5 -140.5q-58 -58 -136 -92.5t-173 -34.5q-75 0 -136.5 24.5t-105 68t-67 102.5t-23.5 127q0 85 34 164.5t95 140.5q58 58 135.5 92t172.5 34zM426 129q52 0 96 20.5t77 53.5
q41 41 63.5 96.5t22.5 109.5q0 41 -12.5 76t-36.5 60.5t-59.5 39.5t-80.5 14q-53 0 -96.5 -20.5t-76.5 -53.5q-42 -41 -64.5 -96.5t-22.5 -109.5q0 -42 12.5 -76.5t36.5 -60t59.5 -39.5t81.5 -14zM528 946h143l92 -150h-113l-66 58l-97 -58h-131z" />
    <glyph glyph-name="Otilde" unicode="&#xd5;" horiz-adv-x="876" 
d="M360 813q28 65 61 101.5t86 36.5q26 0 48.5 -7t44.5 -16q17 -7 32 -12.5t28 -5.5q24 0 38.5 13t30.5 38l81 -28q-29 -65 -61 -101t-85 -36q-26 0 -49 7t-44 16q-17 7 -32.5 12t-28.5 5q-23 0 -38 -12.5t-31 -38.5zM513 740q75 0 136 -24.5t104.5 -67.5t67.5 -102t24 -127
q0 -85 -33.5 -164.5t-94.5 -140.5q-58 -58 -136 -92.5t-173 -34.5q-75 0 -136.5 24.5t-105 68t-67 102.5t-23.5 127q0 85 34 164.5t95 140.5q58 58 135.5 92t172.5 34zM426 129q52 0 96 20.5t77 53.5q41 41 63.5 96.5t22.5 109.5q0 41 -12.5 76t-36.5 60.5t-59.5 39.5
t-80.5 14q-53 0 -96.5 -20.5t-76.5 -53.5q-42 -41 -64.5 -96.5t-22.5 -109.5q0 -42 12.5 -76.5t36.5 -60t59.5 -39.5t81.5 -14z" />
    <glyph glyph-name="Odieresis" unicode="&#xd6;" horiz-adv-x="876" 
d="M418 925h148l-36 -129h-147zM642 925h148l-36 -129h-147zM513 740q75 0 136 -24.5t104.5 -67.5t67.5 -102t24 -127q0 -85 -33.5 -164.5t-94.5 -140.5q-58 -58 -136 -92.5t-173 -34.5q-75 0 -136.5 24.5t-105 68t-67 102.5t-23.5 127q0 85 34 164.5t95 140.5
q58 58 135.5 92t172.5 34zM426 129q52 0 96 20.5t77 53.5q41 41 63.5 96.5t22.5 109.5q0 41 -12.5 76t-36.5 60.5t-59.5 39.5t-80.5 14q-53 0 -96.5 -20.5t-76.5 -53.5q-42 -41 -64.5 -96.5t-22.5 -109.5q0 -42 12.5 -76.5t36.5 -60t59.5 -39.5t81.5 -14z" />
    <glyph glyph-name="Oslash" unicode="&#xd8;" horiz-adv-x="876" 
d="M513 740q66 0 120.5 -19t96.5 -53l71 65h148l-152 -140q23 -37 35.5 -81t12.5 -93q0 -85 -33.5 -164.5t-94.5 -140.5q-58 -58 -136 -92.5t-173 -34.5q-66 0 -121 18.5t-97 53.5l-70 -64h-148l152 139q-48 77 -48 175q0 85 34 164.5t95 140.5q58 58 135.5 92t172.5 34z
M230 318q0 -45 14 -84l371 338q-48 34 -118 34q-55 0 -99 -21t-78 -55q-43 -42 -66.5 -99t-23.5 -113zM425 122q54 0 98.5 21t78.5 56q42 42 65.5 98.5t23.5 113.5q0 44 -15 82l-370 -338q23 -16 53 -24.5t66 -8.5z" />
    <glyph glyph-name="Ugrave" unicode="&#xd9;" horiz-adv-x="804" 
d="M358 889l136 58l80 -161h-104zM362 -11q-63 0 -113.5 16.5t-86 48t-54 77t-18.5 102.5q0 56 18 116l101 379h154l-106 -394q-5 -19 -8 -37.5t-3 -41.5q0 -56 33.5 -90.5t98.5 -34.5q74 0 122 48q24 24 42.5 58t30.5 81l110 411h154l-117 -434q-19 -70 -46.5 -124
t-65.5 -92q-45 -45 -105 -67t-141 -22z" />
    <glyph glyph-name="Uacute" unicode="&#xda;" horiz-adv-x="804" 
d="M633 947l128 -58l-167 -103h-129zM362 -11q-63 0 -113.5 16.5t-86 48t-54 77t-18.5 102.5q0 56 18 116l101 379h154l-106 -394q-5 -19 -8 -37.5t-3 -41.5q0 -56 33.5 -90.5t98.5 -34.5q74 0 122 48q24 24 42.5 58t30.5 81l110 411h154l-117 -434q-19 -70 -46.5 -124
t-65.5 -92q-45 -45 -105 -67t-141 -22z" />
    <glyph glyph-name="Ucircumflex" unicode="&#xdb;" horiz-adv-x="804" 
d="M362 -11q-63 0 -113.5 16.5t-86 48t-54 77t-18.5 102.5q0 56 18 116l101 379h154l-106 -394q-5 -19 -8 -37.5t-3 -41.5q0 -56 33.5 -90.5t98.5 -34.5q74 0 122 48q24 24 42.5 58t30.5 81l110 411h154l-117 -434q-19 -70 -46.5 -124t-65.5 -92q-45 -45 -105 -67t-141 -22z
M491 936h143l92 -150h-113l-66 58l-97 -58h-131z" />
    <glyph glyph-name="Udieresis" unicode="&#xdc;" horiz-adv-x="804" 
d="M381 915h148l-36 -129h-147zM605 915h148l-36 -129h-147zM362 -11q-63 0 -113.5 16.5t-86 48t-54 77t-18.5 102.5q0 56 18 116l101 379h154l-106 -394q-5 -19 -8 -37.5t-3 -41.5q0 -56 33.5 -90.5t98.5 -34.5q74 0 122 48q24 24 42.5 58t30.5 81l110 411h154l-117 -434
q-19 -70 -46.5 -124t-65.5 -92q-45 -45 -105 -67t-141 -22z" />
    <glyph glyph-name="Yacute" unicode="&#xdd;" horiz-adv-x="687" 
d="M262 288l-153 440h170l91 -307l257 307h186l-400 -455l-74 -273h-154zM566 947l128 -58l-167 -103h-129z" />
    <glyph glyph-name="Thorn" unicode="&#xde;" horiz-adv-x="725" 
d="M214 728h154l-28 -108h77q78 0 132.5 -17t94.5 -56q56 -56 56 -149q0 -57 -19.5 -102.5t-54.5 -80.5q-48 -49 -120 -74t-160 -25h-142l-31 -116h-154zM353 251q101 0 152 49q34 36 34 86q0 18 -6 34.5t-18 28.5q-17 17 -42 24.5t-62 7.5h-109l-62 -230h113z" />
    <glyph glyph-name="germandbls" unicode="&#xdf;" horiz-adv-x="667" 
d="M273 116q49 -2 83 7t55 25t30 37.5t9 44.5q0 33 -27.5 57.5t-95.5 32.5l27 101q78 18 113 53.5t35 82.5q0 40 -25 60.5t-60 20.5q-47 0 -78 -32t-48 -92l-137 -514h-150l140 523q16 58 37.5 99t52.5 73q34 34 82 52.5t106 18.5q53 0 94.5 -15t70.5 -41t44 -61.5t15 -76.5
q0 -78 -44.5 -127.5t-119.5 -72.5q22 -9 42.5 -22t35.5 -31t24 -41t9 -52q0 -50 -20.5 -93t-64 -74t-110 -47.5t-157.5 -13.5z" />
    <glyph glyph-name="agrave" unicode="&#xe0;" horiz-adv-x="620" 
d="M176 -11q-36 0 -66 11t-51.5 31t-33.5 47.5t-12 60.5q0 42 14 75.5t39 58.5q33 32 81 49t106 17q47 0 86 -7t74 -18l3 8l4 20q2 10 2 22q0 31 -24.5 50t-84.5 19q-41 0 -79 -8.5t-70 -21.5l-24 120q43 18 94.5 28.5t110.5 10.5q112 0 168 -44.5t56 -126.5
q0 -22 -3.5 -42.5t-8.5 -40.5l-82 -308h-147l17 66q-34 -36 -76 -56.5t-93 -20.5zM240 94q25 0 48.5 9.5t43 25t34 36.5t21.5 45l4 17q-21 8 -50 14t-60 6q-29 0 -53.5 -8.5t-39.5 -24.5q-24 -24 -24 -58q0 -27 20.5 -44.5t55.5 -17.5zM236 743l135 57l67 -181h-104z" />
    <glyph glyph-name="aacute" unicode="&#xe1;" horiz-adv-x="620" 
d="M176 -11q-36 0 -66 11t-51.5 31t-33.5 47.5t-12 60.5q0 42 14 75.5t39 58.5q33 32 81 49t106 17q47 0 86 -7t74 -18l3 8l4 20q2 10 2 22q0 31 -24.5 50t-84.5 19q-41 0 -79 -8.5t-70 -21.5l-24 120q43 18 94.5 28.5t110.5 10.5q112 0 168 -44.5t56 -126.5
q0 -22 -3.5 -42.5t-8.5 -40.5l-82 -308h-147l17 66q-34 -36 -76 -56.5t-93 -20.5zM240 94q25 0 48.5 9.5t43 25t34 36.5t21.5 45l4 17q-21 8 -50 14t-60 6q-29 0 -53.5 -8.5t-39.5 -24.5q-24 -24 -24 -58q0 -27 20.5 -44.5t55.5 -17.5zM495 800l129 -57l-166 -124h-128z" />
    <glyph glyph-name="acircumflex" unicode="&#xe2;" horiz-adv-x="620" 
d="M176 -11q-36 0 -66 11t-51.5 31t-33.5 47.5t-12 60.5q0 42 14 75.5t39 58.5q33 32 81 49t106 17q47 0 86 -7t74 -18l3 8l4 20q2 10 2 22q0 31 -24.5 50t-84.5 19q-41 0 -79 -8.5t-70 -21.5l-24 120q43 18 94.5 28.5t110.5 10.5q112 0 168 -44.5t56 -126.5
q0 -22 -3.5 -42.5t-8.5 -40.5l-82 -308h-147l17 66q-34 -36 -76 -56.5t-93 -20.5zM240 94q25 0 48.5 9.5t43 25t34 36.5t21.5 45l4 17q-21 8 -50 14t-60 6q-29 0 -53.5 -8.5t-39.5 -24.5q-24 -24 -24 -58q0 -27 20.5 -44.5t55.5 -17.5zM358 780h144l83 -161h-110l-63 69
l-101 -69h-122z" />
    <glyph glyph-name="atilde" unicode="&#xe3;" horiz-adv-x="620" 
d="M176 -11q-36 0 -66 11t-51.5 31t-33.5 47.5t-12 60.5q0 42 14 75.5t39 58.5q33 32 81 49t106 17q47 0 86 -7t74 -18l3 8l4 20q2 10 2 22q0 31 -24.5 50t-84.5 19q-41 0 -79 -8.5t-70 -21.5l-24 120q43 18 94.5 28.5t110.5 10.5q112 0 168 -44.5t56 -126.5
q0 -22 -3.5 -42.5t-8.5 -40.5l-82 -308h-147l17 66q-34 -36 -76 -56.5t-93 -20.5zM240 94q25 0 48.5 9.5t43 25t34 36.5t21.5 45l4 17q-21 8 -50 14t-60 6q-29 0 -53.5 -8.5t-39.5 -24.5q-24 -24 -24 -58q0 -27 20.5 -44.5t55.5 -17.5zM631 758q-14 -33 -28.5 -58.5
t-32 -43.5t-38 -27.5t-47.5 -9.5q-26 0 -47.5 7t-41.5 16q-17 7 -31.5 12t-26.5 5q-24 0 -38.5 -12.5t-30.5 -38.5l-81 27q28 65 60.5 102t85.5 37q26 0 47.5 -7t41.5 -16q17 -7 31.5 -12.5t26.5 -5.5q24 0 38.5 13t30.5 39z" />
    <glyph glyph-name="adieresis" unicode="&#xe4;" horiz-adv-x="620" 
d="M176 -11q-36 0 -66 11t-51.5 31t-33.5 47.5t-12 60.5q0 42 14 75.5t39 58.5q33 32 81 49t106 17q47 0 86 -7t74 -18l3 8l4 20q2 10 2 22q0 31 -24.5 50t-84.5 19q-41 0 -79 -8.5t-70 -21.5l-24 120q43 18 94.5 28.5t110.5 10.5q112 0 168 -44.5t56 -126.5
q0 -22 -3.5 -42.5t-8.5 -40.5l-82 -308h-147l17 66q-34 -36 -76 -56.5t-93 -20.5zM240 94q25 0 48.5 9.5t43 25t34 36.5t21.5 45l4 17q-21 8 -50 14t-60 6q-29 0 -53.5 -8.5t-39.5 -24.5q-24 -24 -24 -58q0 -27 20.5 -44.5t55.5 -17.5zM247 756h147l-37 -137h-147zM467 756
h147l-38 -137h-147z" />
    <glyph glyph-name="aring" unicode="&#xe5;" horiz-adv-x="620" 
d="M176 -11q-36 0 -66 11t-51.5 31t-33.5 47.5t-12 60.5q0 42 14 75.5t39 58.5q33 32 81 49t106 17q47 0 86 -7t74 -18l3 8l4 20q2 10 2 22q0 31 -24.5 50t-84.5 19q-41 0 -79 -8.5t-70 -21.5l-24 120q43 18 94.5 28.5t110.5 10.5q112 0 168 -44.5t56 -126.5
q0 -22 -3.5 -42.5t-8.5 -40.5l-82 -308h-147l17 66q-34 -36 -76 -56.5t-93 -20.5zM240 94q25 0 48.5 9.5t43 25t34 36.5t21.5 45l4 17q-21 8 -50 14t-60 6q-29 0 -53.5 -8.5t-39.5 -24.5q-24 -24 -24 -58q0 -27 20.5 -44.5t55.5 -17.5zM549 753q0 -27 -10 -51.5t-28 -43
t-42.5 -30t-53.5 -11.5q-52 0 -82.5 30t-30.5 75q0 26 10 50.5t27.5 43.5t42 30.5t53.5 11.5q52 0 83 -30.5t31 -74.5zM361 727q0 -27 16 -42.5t40 -15.5q16 0 29.5 7t23 18t15 25t5.5 29q0 27 -16 42.5t-41 15.5q-16 0 -29.5 -7t-23 -18t-14.5 -25t-5 -29z" />
    <glyph glyph-name="ae" unicode="&#xe6;" horiz-adv-x="989" 
d="M654 -12q-72 0 -126.5 27t-85.5 81q-49 -51 -112 -79t-139 -28q-85 0 -131.5 41t-46.5 109q0 42 14 75.5t39 58.5q33 32 81 49t106 17q47 0 86 -7t74 -18l3 8l4 20q2 10 2 22q0 31 -24.5 50t-84.5 19q-41 0 -79 -8.5t-70 -21.5l-24 120q43 18 94.5 28.5t110.5 10.5
q69 0 115.5 -21.5t68.5 -63.5q38 40 90 64.5t113 24.5q52 0 93 -16.5t69.5 -45.5t43.5 -68.5t15 -85.5q0 -29 -7 -61t-20 -64h-386v-1q4 -50 35 -82.5t96 -31.5q33 0 62.5 10.5t64.5 35.5l70 -94q-35 -32 -90.5 -53t-123.5 -21zM250 94q39 0 84.5 19t81.5 55q-5 24 -6 51
q-34 14 -65 21t-64 7q-29 0 -53.5 -8.5t-39.5 -24.5q-24 -24 -24 -58q0 -27 22 -44.5t64 -17.5zM601 396q-31 -30 -47 -75h251q5 17 5 36q0 37 -22 62t-73 25q-34 0 -62.5 -12.5t-51.5 -35.5z" />
    <glyph glyph-name="ae" unicode="&#x1fd;" horiz-adv-x="989" 
d="M654 -12q-72 0 -126.5 27t-85.5 81q-49 -51 -112 -79t-139 -28q-85 0 -131.5 41t-46.5 109q0 42 14 75.5t39 58.5q33 32 81 49t106 17q47 0 86 -7t74 -18l3 8l4 20q2 10 2 22q0 31 -24.5 50t-84.5 19q-41 0 -79 -8.5t-70 -21.5l-24 120q43 18 94.5 28.5t110.5 10.5
q69 0 115.5 -21.5t68.5 -63.5q38 40 90 64.5t113 24.5q52 0 93 -16.5t69.5 -45.5t43.5 -68.5t15 -85.5q0 -29 -7 -61t-20 -64h-386v-1q4 -50 35 -82.5t96 -31.5q33 0 62.5 10.5t64.5 35.5l70 -94q-35 -32 -90.5 -53t-123.5 -21zM250 94q39 0 84.5 19t81.5 55q-5 24 -6 51
q-34 14 -65 21t-64 7q-29 0 -53.5 -8.5t-39.5 -24.5q-24 -24 -24 -58q0 -27 22 -44.5t64 -17.5zM601 396q-31 -30 -47 -75h251q5 17 5 36q0 37 -22 62t-73 25q-34 0 -62.5 -12.5t-51.5 -35.5z" />
    <glyph glyph-name="ccedilla" unicode="&#xe7;" horiz-adv-x="593" 
d="M85 -125l123 129q-72 25 -115.5 85.5t-43.5 148.5q0 68 25.5 127t70.5 104t105 71t127 26q46 0 81.5 -10t63.5 -26.5t48 -39t34 -47.5l-116 -81q-21 32 -48 53t-75 21q-29 0 -55.5 -12.5t-48.5 -34.5q-28 -28 -45 -67.5t-17 -83.5q0 -57 33 -89t81 -32q38 0 67 14.5
t61 41.5l78 -99q-21 -19 -43 -35t-47 -27t-53.5 -17.5t-62.5 -6.5h-1l-113 -166z" />
    <glyph glyph-name="egrave" unicode="&#xe8;" horiz-adv-x="640" 
d="M190 225v-1q4 -51 35.5 -83t95.5 -31q33 0 62.5 10.5t64.5 35.5l71 -94q-38 -32 -90.5 -53t-124.5 -21q-59 0 -106.5 17t-80.5 48.5t-51 77.5t-18 103q0 65 26.5 127.5t74.5 110.5q43 43 101 68.5t127 25.5q54 0 96 -16.5t71.5 -45.5t44.5 -68.5t15 -85.5q0 -60 -28 -125
h-386zM251 396q-30 -30 -47 -75h252q5 17 5 36q0 37 -22.5 62t-72.5 25q-34 0 -63 -12.5t-52 -35.5zM260 743l135 57l67 -181h-104z" />
    <glyph glyph-name="eacute" unicode="&#xe9;" horiz-adv-x="640" 
d="M519 800l129 -57l-166 -124h-128zM190 225v-1q4 -51 35.5 -83t95.5 -31q33 0 62.5 10.5t64.5 35.5l71 -94q-38 -32 -90.5 -53t-124.5 -21q-59 0 -106.5 17t-80.5 48.5t-51 77.5t-18 103q0 65 26.5 127.5t74.5 110.5q43 43 101 68.5t127 25.5q54 0 96 -16.5t71.5 -45.5
t44.5 -68.5t15 -85.5q0 -60 -28 -125h-386zM251 396q-30 -30 -47 -75h252q5 17 5 36q0 37 -22.5 62t-72.5 25q-34 0 -63 -12.5t-52 -35.5z" />
    <glyph glyph-name="ecircumflex" unicode="&#xea;" horiz-adv-x="640" 
d="M382 780h144l83 -161h-110l-63 69l-101 -69h-122zM190 225v-1q4 -51 35.5 -83t95.5 -31q33 0 62.5 10.5t64.5 35.5l71 -94q-38 -32 -90.5 -53t-124.5 -21q-59 0 -106.5 17t-80.5 48.5t-51 77.5t-18 103q0 65 26.5 127.5t74.5 110.5q43 43 101 68.5t127 25.5
q54 0 96 -16.5t71.5 -45.5t44.5 -68.5t15 -85.5q0 -60 -28 -125h-386zM251 396q-30 -30 -47 -75h252q5 17 5 36q0 37 -22.5 62t-72.5 25q-34 0 -63 -12.5t-52 -35.5z" />
    <glyph glyph-name="edieresis" unicode="&#xeb;" horiz-adv-x="640" 
d="M271 756h147l-37 -137h-147zM491 756h147l-38 -137h-147zM190 225v-1q4 -51 35.5 -83t95.5 -31q33 0 62.5 10.5t64.5 35.5l71 -94q-38 -32 -90.5 -53t-124.5 -21q-59 0 -106.5 17t-80.5 48.5t-51 77.5t-18 103q0 65 26.5 127.5t74.5 110.5q43 43 101 68.5t127 25.5
q54 0 96 -16.5t71.5 -45.5t44.5 -68.5t15 -85.5q0 -60 -28 -125h-386zM251 396q-30 -30 -47 -75h252q5 17 5 36q0 37 -22.5 62t-72.5 25q-34 0 -63 -12.5t-52 -35.5z" />
    <glyph glyph-name="igrave" unicode="&#xec;" horiz-adv-x="321" 
d="M159 556h152l-149 -556h-152zM95 743l135 57l67 -181h-104z" />
    <glyph glyph-name="iacute" unicode="&#xed;" horiz-adv-x="321" 
d="M355 800l129 -57l-166 -124h-128zM159 556h152l-149 -556h-152z" />
    <glyph glyph-name="icircumflex" unicode="&#xee;" horiz-adv-x="321" 
d="M218 780h144l83 -161h-110l-63 69l-101 -69h-122zM159 556h152l-149 -556h-152z" />
    <glyph glyph-name="idieresis" unicode="&#xef;" horiz-adv-x="321" 
d="M107 756h147l-37 -137h-147zM327 756h147l-38 -137h-147zM159 556h152l-149 -556h-152z" />
    <glyph glyph-name="eth" unicode="&#xf0;" horiz-adv-x="688" 
d="M243 666l103 28q-16 17 -32 33l-32 32h186q5 -7 11 -13t11 -12l125 34l26 -78l-98 -27q45 -68 70.5 -141t25.5 -153q0 -86 -28.5 -160.5t-82.5 -128.5q-42 -42 -99 -67t-126 -25q-57 0 -104 17.5t-80 49.5t-51.5 78.5t-18.5 104.5q0 69 25 128.5t69 103.5q38 39 88 61.5
t107 22.5q48 0 82.5 -17t65.5 -49q-13 32 -34 66.5t-48 69.5l-136 -37zM315 116q32 0 60 12.5t50 34.5q28 28 44 66t16 79q0 59 -32.5 93.5t-88.5 34.5q-33 0 -61 -12.5t-49 -34.5q-28 -27 -43 -64.5t-15 -79.5q0 -60 31 -94.5t88 -34.5z" />
    <glyph glyph-name="ntilde" unicode="&#xf1;" horiz-adv-x="655" 
d="M152 556h152l-17 -61q30 28 68 49.5t86 21.5q75 0 120 -43t45 -119q0 -23 -5.5 -50.5t-12.5 -53.5l-80 -300h-152l82 306q3 11 5.5 25.5t2.5 24.5q0 35 -21.5 54t-59.5 19q-48 0 -80.5 -32t-46.5 -85l-84 -312h-151zM647 758q-14 -33 -28.5 -58.5t-32 -43.5t-38 -27.5
t-47.5 -9.5q-26 0 -47.5 7t-41.5 16q-17 7 -31.5 12t-26.5 5q-24 0 -38.5 -12.5t-30.5 -38.5l-81 27q28 65 60.5 102t85.5 37q26 0 47.5 -7t41.5 -16q17 -7 31.5 -12.5t26.5 -5.5q24 0 38.5 13t30.5 39z" />
    <glyph glyph-name="ograve" unicode="&#xf2;" horiz-adv-x="687" 
d="M371 566q61 0 110.5 -19t84.5 -53.5t53.5 -81.5t18.5 -102q0 -64 -26 -123t-71 -104q-44 -44 -101.5 -69.5t-123.5 -25.5q-62 0 -111 19t-84 53.5t-53.5 81t-18.5 102.5q0 63 26 122t71 105q44 44 101.5 69.5t123.5 25.5zM323 117q31 0 58 13t47 33q29 29 45 68.5
t16 74.5q0 63 -34.5 96.5t-90.5 33.5q-31 0 -58 -12.5t-47 -32.5q-29 -29 -45 -68.5t-16 -74.5q0 -63 34.5 -97t90.5 -34zM272 743l135 57l67 -181h-104z" />
    <glyph glyph-name="oacute" unicode="&#xf3;" horiz-adv-x="687" 
d="M525 800l129 -57l-166 -124h-128zM371 566q61 0 110.5 -19t84.5 -53.5t53.5 -81.5t18.5 -102q0 -64 -26 -123t-71 -104q-44 -44 -101.5 -69.5t-123.5 -25.5q-62 0 -111 19t-84 53.5t-53.5 81t-18.5 102.5q0 63 26 122t71 105q44 44 101.5 69.5t123.5 25.5zM323 117
q31 0 58 13t47 33q29 29 45 68.5t16 74.5q0 63 -34.5 96.5t-90.5 33.5q-31 0 -58 -12.5t-47 -32.5q-29 -29 -45 -68.5t-16 -74.5q0 -63 34.5 -97t90.5 -34z" />
    <glyph glyph-name="ocircumflex" unicode="&#xf4;" horiz-adv-x="687" 
d="M396 780h144l83 -161h-110l-63 69l-101 -69h-122zM371 566q61 0 110.5 -19t84.5 -53.5t53.5 -81.5t18.5 -102q0 -64 -26 -123t-71 -104q-44 -44 -101.5 -69.5t-123.5 -25.5q-62 0 -111 19t-84 53.5t-53.5 81t-18.5 102.5q0 63 26 122t71 105q44 44 101.5 69.5t123.5 25.5
zM323 117q31 0 58 13t47 33q29 29 45 68.5t16 74.5q0 63 -34.5 96.5t-90.5 33.5q-31 0 -58 -12.5t-47 -32.5q-29 -29 -45 -68.5t-16 -74.5q0 -63 34.5 -97t90.5 -34z" />
    <glyph glyph-name="otilde" unicode="&#xf5;" horiz-adv-x="687" 
d="M371 566q61 0 110.5 -19t84.5 -53.5t53.5 -81.5t18.5 -102q0 -64 -26 -123t-71 -104q-44 -44 -101.5 -69.5t-123.5 -25.5q-62 0 -111 19t-84 53.5t-53.5 81t-18.5 102.5q0 63 26 122t71 105q44 44 101.5 69.5t123.5 25.5zM323 117q31 0 58 13t47 33q29 29 45 68.5
t16 74.5q0 63 -34.5 96.5t-90.5 33.5q-31 0 -58 -12.5t-47 -32.5q-29 -29 -45 -68.5t-16 -74.5q0 -63 34.5 -97t90.5 -34zM669 758q-14 -33 -28.5 -58.5t-32 -43.5t-38 -27.5t-47.5 -9.5q-26 0 -47.5 7t-41.5 16q-17 7 -31.5 12t-26.5 5q-24 0 -38.5 -12.5t-30.5 -38.5
l-81 27q28 65 60.5 102t85.5 37q26 0 47.5 -7t41.5 -16q17 -7 31.5 -12.5t26.5 -5.5q24 0 38.5 13t30.5 39z" />
    <glyph glyph-name="odieresis" unicode="&#xf6;" horiz-adv-x="687" 
d="M285 756h147l-37 -137h-147zM505 756h147l-38 -137h-147zM371 566q61 0 110.5 -19t84.5 -53.5t53.5 -81.5t18.5 -102q0 -64 -26 -123t-71 -104q-44 -44 -101.5 -69.5t-123.5 -25.5q-62 0 -111 19t-84 53.5t-53.5 81t-18.5 102.5q0 63 26 122t71 105q44 44 101.5 69.5
t123.5 25.5zM323 117q31 0 58 13t47 33q29 29 45 68.5t16 74.5q0 63 -34.5 96.5t-90.5 33.5q-31 0 -58 -12.5t-47 -32.5q-29 -29 -45 -68.5t-16 -74.5q0 -63 34.5 -97t90.5 -34z" />
    <glyph glyph-name="oslash" unicode="&#xf8;" horiz-adv-x="687" 
d="M371 566q53 0 96.5 -14.5t77.5 -40.5l53 49h134l-128 -115q34 -60 34 -135q0 -64 -26 -123t-71 -104q-44 -44 -101.5 -69.5t-123.5 -25.5q-54 0 -97.5 14t-76.5 40l-53 -48h-134l127 116q-33 57 -33 134q0 63 26 122t71 105q44 44 101.5 69.5t123.5 25.5zM368 441
q-34 0 -62.5 -13t-50.5 -35q-29 -30 -45.5 -69t-16.5 -76q0 -12 1 -23t3 -21l243 219q-30 18 -72 18zM494 306q0 22 -5 44l-242 -220q31 -17 72 -17q34 0 62.5 13t50.5 35q29 29 45.5 68.5t16.5 76.5z" />
    <glyph glyph-name="ugrave" unicode="&#xf9;" horiz-adv-x="655" 
d="M214 -11q-75 0 -120 43.5t-45 119.5q0 23 5.5 50.5t12.5 53.5l80 300h152l-82 -306q-3 -12 -5 -26t-2 -25q0 -35 21 -53.5t59 -18.5q48 0 80.5 32t46.5 85l84 312h151l-149 -556h-151l16 61q-30 -28 -68 -50t-86 -22zM258 743l135 57l67 -181h-104z" />
    <glyph glyph-name="uacute" unicode="&#xfa;" horiz-adv-x="655" 
d="M518 800l129 -57l-166 -124h-128zM214 -11q-75 0 -120 43.5t-45 119.5q0 23 5.5 50.5t12.5 53.5l80 300h152l-82 -306q-3 -12 -5 -26t-2 -25q0 -35 21 -53.5t59 -18.5q48 0 80.5 32t46.5 85l84 312h151l-149 -556h-151l16 61q-30 -28 -68 -50t-86 -22z" />
    <glyph glyph-name="ucircumflex" unicode="&#xfb;" horiz-adv-x="655" 
d="M380 780h144l83 -161h-110l-63 69l-101 -69h-122zM214 -11q-75 0 -120 43.5t-45 119.5q0 23 5.5 50.5t12.5 53.5l80 300h152l-82 -306q-3 -12 -5 -26t-2 -25q0 -35 21 -53.5t59 -18.5q48 0 80.5 32t46.5 85l84 312h151l-149 -556h-151l16 61q-30 -28 -68 -50t-86 -22z
" />
    <glyph glyph-name="udieresis" unicode="&#xfc;" horiz-adv-x="655" 
d="M269 756h147l-37 -137h-147zM489 756h147l-38 -137h-147zM214 -11q-75 0 -120 43.5t-45 119.5q0 23 5.5 50.5t12.5 53.5l80 300h152l-82 -306q-3 -12 -5 -26t-2 -25q0 -35 21 -53.5t59 -18.5q48 0 80.5 32t46.5 85l84 312h151l-149 -556h-151l16 61q-30 -28 -68 -50
t-86 -22z" />
    <glyph glyph-name="yacute" unicode="&#xfd;" horiz-adv-x="624" 
d="M101 556h155l30 -384l216 384h164l-348 -570q-27 -42 -53 -72t-53.5 -48.5t-57.5 -27t-65 -8.5q-42 0 -72.5 10.5t-56.5 28.5l81 110q13 -10 30 -16.5t33 -6.5q20 0 35 8t33 32zM495 800l129 -57l-166 -124h-128z" />
    <glyph glyph-name="thorn" unicode="&#xfe;" horiz-adv-x="710" 
d="M286 493q36 35 74.5 54t86.5 19q46 0 85 -16t67.5 -46.5t45 -75t16.5 -100.5q0 -77 -27 -140t-73 -108q-43 -43 -96.5 -67t-110.5 -24q-67 0 -108.5 26.5t-68.5 68.5l-66 -250h-152l247 925h152zM334 117q30 0 58.5 13t51.5 36q27 27 43.5 65.5t16.5 86.5
q0 57 -32.5 88.5t-86.5 31.5q-31 0 -60 -13t-52 -36q-29 -29 -45.5 -67t-16.5 -82q0 -55 34.5 -89t88.5 -34z" />
    <glyph glyph-name="ydieresis" unicode="&#xff;" horiz-adv-x="624" 
d="M101 556h155l30 -384l216 384h164l-348 -570q-27 -42 -53 -72t-53.5 -48.5t-57.5 -27t-65 -8.5q-42 0 -72.5 10.5t-56.5 28.5l81 110q13 -10 30 -16.5t33 -6.5q20 0 35 8t33 32zM247 756h147l-37 -137h-147zM467 756h147l-38 -137h-147z" />
    <glyph glyph-name="dotlessi" unicode="&#x131;" horiz-adv-x="321" 
d="M159 556h152l-149 -556h-152z" />
    <glyph glyph-name="Lslash" unicode="&#x141;" horiz-adv-x="693" 
d="M81 396l83 23l83 309h154l-71 -263l216 60l-38 -143l-216 -60l-48 -182h367l-38 -140h-521l74 276l-84 -23z" />
    <glyph glyph-name="lslash" unicode="&#x142;" horiz-adv-x="380" 
d="M75 414l84 23l87 322h151l-74 -277l84 23l-38 -142l-84 -23l-91 -340h-152l79 294l-84 -23z" />
    <glyph glyph-name="OE" unicode="&#x152;" horiz-adv-x="1128" 
d="M440 0q-105 0 -174 26t-116 73q-35 35 -54.5 88t-19.5 120q0 82 30.5 155t88.5 131q66 66 160.5 100.5t220.5 34.5h608l-37 -137h-369l-42 -157h322l-37 -135h-322l-44 -162h376l-37 -137h-554zM280 194q26 -26 67.5 -40.5t104.5 -14.5h51l121 450h-66
q-74 0 -138.5 -22.5t-109.5 -67.5q-35 -36 -54.5 -84t-19.5 -102q0 -39 11.5 -68.5t32.5 -50.5z" />
    <glyph glyph-name="oe" unicode="&#x153;" horiz-adv-x="1080" 
d="M631 225v-1q4 -50 35 -82.5t96 -31.5q33 0 62.5 10.5t64.5 35.5l70 -94q-35 -32 -90 -53t-124 -21q-75 0 -127.5 27t-79.5 78q-39 -48 -96 -76.5t-126 -28.5q-62 0 -111 19t-84 53.5t-53.5 81t-18.5 102.5q0 63 26 122t71 105q44 44 101.5 69.5t123.5 25.5
q79 0 133 -30.5t82 -82.5q39 50 97.5 81.5t134.5 31.5q54 0 96 -16.5t71 -45.5t44 -68.5t15 -85.5q0 -29 -7 -61t-20 -64h-386zM323 117q31 0 58 13t47 33q29 29 45 68.5t16 74.5q0 63 -34.5 96.5t-90.5 33.5q-31 0 -58 -12.5t-47 -32.5q-29 -29 -45 -68.5t-16 -74.5
q0 -63 34.5 -97t90.5 -34zM692 396q-31 -30 -47 -75h251q5 17 5 36q0 37 -22 62t-73 25q-34 0 -62.5 -12.5t-51.5 -35.5z" />
    <glyph glyph-name="Scaron" unicode="&#x160;" horiz-adv-x="672" 
d="M312 -10q-211 0 -316 134l116 98q44 -48 93.5 -72.5t113.5 -24.5q51 0 84 22t33 58q0 14 -6 25.5t-20 23t-38 23.5t-61 27t-70 32.5t-57.5 41t-39 53.5t-14.5 70q0 47 17 86t47 69q39 39 97.5 60.5t125.5 21.5q94 0 160 -29t112 -79l-106 -106q-42 39 -83 59t-95 20
q-27 0 -47.5 -6.5t-34.5 -17.5t-21.5 -25t-7.5 -29t6 -26.5t21 -22.5t40 -23t63 -27t70.5 -33t56 -41t36.5 -53t13 -69q0 -50 -18 -89t-47 -68q-42 -42 -99.5 -62.5t-123.5 -20.5zM536 796h-143l-92 150h113l66 -58l97 58h131z" />
    <glyph glyph-name="scaron" unicode="&#x161;" 
d="M168 780h110l63 -69l101 69h122l-170 -161h-143zM231 -12q-32 0 -65.5 6t-66 18.5t-63 31t-54.5 44.5l88 91q44 -44 89 -59.5t83 -15.5q32 0 51.5 13.5t19.5 38.5q0 17 -18 29.5t-50 25.5q-33 14 -62.5 29t-51 33.5t-34.5 42.5t-13 57q0 41 15.5 76.5t44 61.5t69.5 40.5
t93 14.5q33 0 65 -6.5t60 -18t51.5 -25.5t40.5 -29l-82 -96q-40 32 -75.5 45.5t-70.5 13.5q-32 0 -49 -13.5t-17 -36.5q0 -17 19 -30.5t57 -30.5q28 -12 55.5 -26t49 -32.5t35 -42.5t13.5 -56q0 -45 -17 -81t-47.5 -61t-72 -38.5t-90.5 -13.5z" />
    <glyph glyph-name="Ydieresis" unicode="&#x178;" horiz-adv-x="687" 
d="M262 288l-153 440h170l91 -307l257 307h186l-400 -455l-74 -273h-154zM314 915h148l-36 -129h-147zM538 915h148l-36 -129h-147z" />
    <glyph glyph-name="Zcaron" unicode="&#x17d;" horiz-adv-x="725" 
d="M565 786h-143l-92 150h113l66 -58l97 58h131zM16 116l521 477h-380l37 135h588l-32 -116l-520 -477h396l-36 -135h-605z" />
    <glyph glyph-name="zcaron" unicode="&#x17e;" horiz-adv-x="589" 
d="M194 780h110l63 -69l101 69h122l-170 -161h-143zM6 106l373 327h-275l33 123h470l-29 -107l-374 -326h290l-33 -123h-483z" />
    <glyph glyph-name="circumflex" unicode="&#x2c6;" 
d="M328 780h144l83 -161h-110l-63 69l-101 -69h-122z" />
    <glyph glyph-name="caron" unicode="&#x2c7;" 
d="M198 780h110l63 -69l101 69h122l-170 -161h-143z" />
    <glyph glyph-name="breve" unicode="&#x2d8;" 
d="M372 617q-46 0 -78 13t-52.5 35.5t-29.5 52t-8 61.5h105q1 -26 18.5 -44.5t52.5 -18.5q42 0 65.5 18.5t40.5 44.5h106q-12 -35 -32 -64.5t-48 -51t-63 -34t-77 -12.5z" />
    <glyph glyph-name="dotaccent" unicode="&#x2d9;" 
d="M320 756h151l-38 -137h-151z" />
    <glyph glyph-name="ring" unicode="&#x2da;" 
d="M512 753q0 -27 -10 -51.5t-28 -43t-42.5 -30t-53.5 -11.5q-52 0 -82.5 30t-30.5 75q0 26 10 50.5t27.5 43.5t42 30.5t53.5 11.5q52 0 83 -30.5t31 -74.5zM324 727q0 -27 16 -42.5t40 -15.5q16 0 29.5 7t23 18t15 25t5.5 29q0 27 -16 42.5t-41 15.5q-16 0 -29.5 -7
t-23 -18t-14.5 -25t-5 -29z" />
    <glyph glyph-name="ogonek" unicode="&#x2db;" 
d="M256 -171q-14 -2 -26 -2.5t-26 -0.5q-51 0 -81 18t-30 51q0 30 23 58.5t57 57.5l97 -1q-29 -29 -43.5 -47.5t-14.5 -35.5t15 -23t47 -7z" />
    <glyph glyph-name="tilde" unicode="&#x2dc;" 
d="M596 758q-14 -33 -28.5 -58.5t-32 -43.5t-38 -27.5t-47.5 -9.5q-26 0 -47.5 7t-41.5 16q-17 7 -31.5 12t-26.5 5q-24 0 -38.5 -12.5t-30.5 -38.5l-81 27q28 65 60.5 102t85.5 37q26 0 47.5 -7t41.5 -16q17 -7 31.5 -12.5t26.5 -5.5q24 0 38.5 13t30.5 39z" />
    <glyph glyph-name="hungarumlaut" unicode="&#x2dd;" 
d="M300 800l114 -57l-166 -124h-111zM503 800l113 -57l-167 -124h-112z" />
    <glyph glyph-name="endash" unicode="&#x2013;" horiz-adv-x="562" 
d="M91 393h442l-38 -142h-442z" />
    <glyph glyph-name="emdash" unicode="&#x2014;" horiz-adv-x="947" 
d="M91 393h827l-38 -142h-827z" />
    <glyph glyph-name="quoteleft" unicode="&#x2018;" horiz-adv-x="336" 
d="M142 544q26 100 82 143.5t147 46.5l10 -63q-63 -6 -93.5 -32t-38.5 -70h62l-43 -162h-163z" />
    <glyph glyph-name="quoteright" unicode="&#x2019;" horiz-adv-x="336" 
d="M88 464q63 6 93.5 32t38.5 70h-62l43 162h163l-37 -137q-26 -100 -82 -143.5t-147 -46.5z" />
    <glyph glyph-name="quotesinglbase" unicode="&#x201a;" horiz-adv-x="336" 
d="M-57 -102q63 6 93.5 32t38.5 70h-62l43 162h163l-37 -137q-26 -100 -82 -143.5t-147 -46.5z" />
    <glyph glyph-name="quotedblleft" unicode="&#x201c;" horiz-adv-x="596" 
d="M142 543q27 100 83 143.5t147 46.5l10 -63q-63 -6 -93.5 -32t-38.5 -70h62l-44 -162h-162zM402 543q26 100 82 143.5t147 46.5l10 -63q-63 -6 -93.5 -32t-38.5 -70h63l-44 -162h-162z" />
    <glyph glyph-name="quotedblright" unicode="&#x201d;" horiz-adv-x="596" 
d="M89 464q63 6 93.5 32t38.5 70h-62l43 162h162l-36 -137q-26 -100 -82 -143.5t-147 -46.5zM348 464q63 6 93.5 32t38.5 70h-62l44 162h162l-36 -137q-27 -100 -83 -143.5t-147 -46.5z" />
    <glyph glyph-name="quotedblbase" unicode="&#x201e;" horiz-adv-x="596" 
d="M-57 -102q63 6 93.5 32t38.5 70h-62l43 162h163l-37 -137q-26 -100 -82 -143.5t-147 -46.5zM203 -102q63 6 93.5 32t38.5 70h-63l44 162h162l-36 -137q-27 -100 -82.5 -143.5t-146.5 -46.5z" />
    <glyph glyph-name="bullet" unicode="&#x2022;" horiz-adv-x="528" 
d="M313 525q57 0 88.5 -33t31.5 -87q0 -41 -16 -79.5t-44 -67.5q-23 -23 -51.5 -36t-61.5 -13q-57 0 -88.5 33t-31.5 88q0 40 16 78.5t44 67.5q23 23 51.5 36t61.5 13z" />
    <glyph glyph-name="ellipsis" unicode="&#x2026;" horiz-adv-x="905" 
d="M55 158h159l-43 -158h-158zM342 158h159l-43 -158h-158zM629 158h158l-42 -158h-159z" />
    <glyph glyph-name="guilsinglleft" unicode="&#x2039;" horiz-adv-x="394" 
d="M53 265l2 8l255 239l77 -76l-174 -181l74 -170l-112 -50z" />
    <glyph glyph-name="guilsinglright" unicode="&#x203a;" horiz-adv-x="394" 
d="M339 282l-2 -8l-255 -239l-77 76l174 181l-74 170l112 50z" />
    <glyph glyph-name="Euro" unicode="&#x20ac;" horiz-adv-x="757" 
d="M105 505h75q34 77 89 132q48 48 111 75.5t141 27.5q55 0 97.5 -12t74.5 -34t53.5 -53.5t35.5 -69.5l-131 -64q-11 23 -23.5 40.5t-29 29.5t-37.5 18.5t-50 6.5q-34 0 -65.5 -12.5t-57.5 -38.5q-23 -23 -36 -46h208l-27 -102h-220q-13 -38 -17 -74h217l-27 -102h-192
q11 -51 44 -76t80 -25t81 18.5t70 56.5l104 -90q-47 -56 -110 -89.5t-148 -33.5q-59 0 -107.5 16.5t-85 47.5t-59 75.5t-29.5 99.5h-103l27 102h78q2 19 5.5 37.5t8.5 36.5h-72z" />
    <glyph glyph-name="trademark" unicode="&#x2122;" horiz-adv-x="737" 
d="M219 665h-96l17 63h263l-17 -63h-96l-70 -257h-70zM471 728h70l50 -139l124 139h77l-87 -320h-67l59 218l-128 -143h-6l-53 143l-59 -218h-67z" />
    <glyph glyph-name="hcoslug" horiz-adv-x="694" 
d="M273 18q2 22 -19 22q-9 0 -14.5 -5.5t-5.5 -15.5q1 -20 21 -20q15 0 18 14h-7q-2 -7 -9 -7q-10 0 -10 12h26zM254 35q7 0 7 -12h-14q0 12 7 12zM195 78q-8 0 -8 16q0 15 8 15t8 -15q0 -16 -8 -16zM210 4q-8 0 -8 16q0 15 8 15t8 -15q0 -16 -8 -16zM210 -1q9 0 15 6t6 15
t-6 14.5t-15 5.5t-15 -5.5t-6 -14.5q0 -10 6 -15.5t15 -5.5zM546 4q-8 0 -8 16q0 15 8 15t8 -15q0 -16 -8 -16zM546 -1q9 0 15 6t6 15t-6 14.5t-15 5.5t-15 -5.5t-6 -14.5q0 -10 6 -15.5t15 -5.5zM125 74h30v7h-10v16h4q5 0 6 -8h7v23h-7q-1 -8 -6 -8h-4v18h12q5 0 7 -2.5
t4 -10.5h8v20h-51v-7h7v-41h-7v-7zM195 73q9 0 15 6t6 15t-6 14.5t-15 5.5t-15 -5.5t-6 -14.5q0 -10 6 -15.5t15 -5.5zM644 -100h-594v800h594v-800zM498 -1q22 0 24 23h-8q-2 -16 -14 -16q-16 0 -16 22t14 22q10 0 15 -16h8v22h-8l-1 -6q-7 7 -16 7q-11 0 -19 -8t-8 -22
q0 -28 29 -28zM372 80q-8 0 -8 13t8 13q7 0 7 -13t-7 -13zM276 0h23v7h-5v25h14v-25h-5v-7h23v7h-6v52l-10 -2q-4 2 -9 2q-8 0 -13.5 -4.5t-5.5 -14.5v-1h-7v-7h7v-25h-6v-7zM368 0h26v7h-8v16q4 9 7 9v-1q0 -6 6 -6q7 0 7 7q0 8 -8 8t-12 -11v10h-18v-7h6v-25h-6v-7z
M352 73h6l4 8q5 -8 14 -8t12.5 7t3.5 14q0 20 -15 20q-10 0 -13 -9v27h-18v-7h6v-52zM400 75q-7 0 -7 -7q0 -9 11 -9q12 0 18 16l13 31h5v7h-17v-7h5l-8 -20l-9 20h6v7h-25v-7h5q2 -5 6 -13l6 -11l4 -9q-2 -8 -8 -8q2 2 1 6t-6 4zM247 428q0 13 7.5 21t19.5 8q13 0 21 -10.5
t8 -27.5q0 -13 -5 -25t-13 -25q-17 17 -27.5 29.5t-10.5 29.5zM302 74h7l1 4q2 -2 5 -3.5t8 -1.5q14 0 14 13q0 6 -4 8.5t-8.5 3.5t-8 2t-3.5 4q0 4 5 4t10 -7h7v13h-6l-2 -5q-3 5 -11 5q-7 0 -10.5 -3.5t-3.5 -8.5q0 -6 3.5 -8.5t8 -4t8.5 -2.5t4 -4q0 -4 -5 -4q-6 0 -12 9
h-7v-14zM261 219q-23 0 -37.5 15.5t-14.5 38.5q0 24 16 40q14 -13 33.5 -34.5t40.5 -47.5q-15 -12 -38 -12zM274 122v-9h-7v-7h7v-20q0 -13 12 -13q11 0 14 13l-5 2q-1 -7 -5 -7t-4 5v20h13v7h-13v11zM428 306q7 -11 18 -18t25 -7q21 0 35.5 15.5t14.5 38.5t-14.5 37.5
t-35.5 14.5q-35 0 -60 -38q-2 20 -15.5 29t-33.5 8q9 15 9 34q0 13 -6 26.5t-18 24t-30 17t-41 6.5q-25 0 -45 -7t-34.5 -19t-22 -27.5t-7.5 -31.5q0 -22 7.5 -37t23.5 -32q-82 -28 -82 -91q0 -20 8.5 -37t23.5 -29.5t34.5 -19.5t42.5 -7q63 0 104 45q25 -26 43.5 -35.5
t41.5 -9.5q32 0 55 25t25 69l-7 2q-8 -13 -17.5 -21t-25.5 -8q-15 0 -29 9.5t-33 31.5q11 15 23 25t23 17zM219 74h22v7h-4v15q0 10 7 10q6 0 6 -7v-18h-4v-7h22v7h-6v19q0 14 -12 14q-9 0 -14 -11v10h-17v-7h6v-25h-6v-7zM446 33v-7h6q-2 -5 -6 -9q-3 3 -5.5 6t-6.5 7
q11 5 11 12q0 5 -3.5 8.5t-10.5 3.5q-8 0 -12.5 -4t-4.5 -10t6 -12q-13 -4 -13 -15q0 -14 18 -14q9 0 15 6q5 -6 12 -6q10 0 13 12l-5 1q-1 -5 -4 -5t-6 5q3 3 5 6t4 8h5v7h-18zM429 6q-10 0 -10 10q0 5 4 9q4 -4 7 -7.5t7 -8.5q-4 -3 -8 -3zM294 42q0 7 1.5 9.5t4.5 2.5
q2 0 3 -1q-1 -2 -1 -4q0 -5 6 -5v-5h-14v3zM425 43q0 5 5 5q6 0 6 -6t-5 -9q-6 6 -6 10zM312 342q30 20 42 34q17 -17 15 -36t-16 -44q-10 11 -19.5 22.5t-21.5 23.5zM366 18q2 22 -19 22q-8 0 -14 -6t-6 -15q0 -20 21 -20q14 0 18 14h-7q-1 -7 -9 -7q-10 0 -10 12h26z
M347 35q7 0 7 -12h-14q0 12 7 12zM124 0h29v7h-8v18h22v-18h-8v-7h29v7h-8v41h8v7h-29v-7h8v-16h-22v16h8v7h-29v-7h8v-41h-8v-7zM576 13q-7 0 -7 -7t7 -7t7 7t-7 7z" />
    <glyph glyph-name="acute.cap" 
d="M456 947l128 -58l-167 -103h-129z" />
    <glyph glyph-name="hungarumlaut.cap" 
d="M345 947l123 -58l-167 -103h-124zM546 947l123 -58l-168 -103h-123z" />
    <glyph glyph-name="caron.alt.cap" 
d="M366 828h121v-3l-117 -210h-61z" />
    <glyph glyph-name="grave.cap" 
d="M289 889l136 58l80 -161h-104z" />
    <glyph glyph-name="circumflex.cap" 
d="M372 936h143l92 -150h-113l-66 58l-97 -58h-131z" />
    <glyph glyph-name="caron.cap" 
d="M476 786h-143l-92 150h113l66 -58l97 58h131z" />
    <glyph glyph-name="breve.cap" 
d="M404 784q-81 0 -123.5 39t-30.5 113h98q3 -25 20.5 -38.5t57.5 -13.5q39 0 62 13.5t39 38.5h111q-26 -74 -89 -113t-145 -39z" />
    <glyph glyph-name="tilde.cap" 
d="M193 803q28 65 61 101.5t86 36.5q26 0 48.5 -7t44.5 -16q17 -7 32 -12.5t28 -5.5q24 0 38.5 13t30.5 38l81 -28q-29 -65 -61 -101t-85 -36q-26 0 -49 7t-44 16q-17 7 -32.5 12t-28.5 5q-23 0 -38 -12.5t-31 -38.5z" />
    <glyph glyph-name="macron.cap" 
d="M240 900h391l-30 -108h-390z" />
    <glyph glyph-name="dieresis.cap" 
d="M254 915h148l-36 -129h-147zM478 915h148l-36 -129h-147z" />
    <glyph glyph-name="dotaccent.cap" 
d="M363 915h152l-36 -129h-151z" />
    <glyph glyph-name="ring.cap" 
d="M288 1011q25 0 46 -8t36.5 -21.5t24.5 -32t9 -38.5q0 -26 -9.5 -49t-27.5 -40.5t-44.5 -28t-60.5 -10.5q-25 0 -46 8t-36.5 21.5t-24.5 31.5t-9 39q0 25 9.5 48t27.5 41t44.5 28.5t60.5 10.5zM267 837q35 0 55 21.5t20 46.5q0 23 -16.5 37.5t-42.5 14.5q-35 0 -55 -21.5
t-20 -46.5q0 -24 16.5 -38t42.5 -14z" />
    <glyph glyph-name="commaaccent.cap" 
d="M43 -253q84 8 98 74h-65l32 117h139l-26 -99q-20 -74 -65.5 -105t-116.5 -33z" />
    <glyph glyph-name="cedilla.cap" 
d="M52 -125l129 135h113l-128 -188z" />
    <glyph glyph-name="ogonek.cap" 
d="M256 -171q-14 -2 -26 -2.5t-26 -0.5q-51 0 -81 18t-30 51q0 30 23 58.5t57 57.5l97 -1q-29 -29 -43.5 -47.5t-14.5 -35.5t15 -23t47 -7z" />
    </font>
</defs>
</svg>
